<svg xmlns="http://www.w3.org/2000/svg" fill="white" width="512" height="512">
  <path d="M0 0 C0.75925781 -0.03738281 1.51851563 -0.07476563 2.30078125 -0.11328125 C8.58676995 1.00811444 12.13851124 7.2524795 15.6875 12.0625 C20.13826289 17.99344633 24.67018449 23.83082319 29.375 29.5625 C34.10592584 35.33723999 38.71348925 41.18703171 43.2421875 47.12109375 C45.77608707 50.4388102 48.35326919 53.72141466 50.9375 57 C55.2086767 62.42116771 59.4538329 67.86199115 63.6875 73.3125 C69.22189981 80.43587349 74.78058215 87.53946763 80.36083984 94.62695312 C82.63836206 97.52058827 84.91274007 100.41669323 87.1875 103.3125 C88.1041523 104.47917796 89.02081895 105.64584464 89.9375 106.8125 C91.77083333 109.14583333 93.60416667 111.47916667 95.4375 113.8125 C95.89116943 114.38983887 96.34483887 114.96717773 96.81225586 115.56201172 C97.72996632 116.73012534 98.64744638 117.89842 99.56469727 119.06689453 C101.83855072 121.96294268 104.11616522 124.85585624 106.40234375 127.7421875 C108.6991158 130.64428475 110.98256042 133.55642354 113.25634766 136.4765625 C114.23242967 137.7287182 115.2113968 138.97862892 116.19287109 140.2265625 C138.48719499 168.65908227 151.19010893 201.11992147 151 237.5 C150.99726578 238.58825073 150.99726578 238.58825073 150.99447632 239.69848633 C150.94755061 250.80535764 150.42087603 261.50813174 147.6875 272.3125 C147.52121094 273.00085938 147.35492188 273.68921875 147.18359375 274.3984375 C137.51650852 313.49642665 111.9063865 346.49251998 77.96875 367.66796875 C56.95778308 380.30691496 34.89976513 385.46399822 10.6875 388.3125 C11.0175 405.1425 11.3475 421.9725 11.6875 439.3125 C14.6575 436.0125 17.6275 432.7125 20.6875 429.3125 C29.28960441 422.96017674 37.08266756 421.630874 47.6875 422.3125 C49.3600885 422.61471944 51.02936229 422.93904556 52.6875 423.3125 C52.99300781 422.58546875 53.29851562 421.8584375 53.61328125 421.109375 C59.55317251 408.05834632 68.61369771 397.7632148 82.13671875 392.328125 C95.31259337 387.71112431 108.77734026 387.8634066 121.6875 393.3125 C135.35399666 400.221463 144.06715762 410.08207145 149.2734375 424.453125 C150.88477865 429.38915125 151.18808766 433.9593222 151.125 439.125 C151.11364014 440.43658081 151.11364014 440.43658081 151.10205078 441.7746582 C150.82741619 452.61069657 147.73553604 461.9300358 140.6875 470.3125 C136.92392768 472.82154822 133.97530501 472.59384352 129.617342 472.57256222 C128.78132184 472.57636789 127.94530169 472.58017356 127.0839476 472.58409455 C124.25798076 472.5944728 121.43221247 472.59049274 118.60623169 472.58665466 C116.5695526 472.59110368 114.53287524 472.59641661 112.49620044 472.60252339 C106.88024086 472.61675402 101.26433648 472.61836572 95.64836144 472.61792648 C89.59917055 472.61957022 83.55000269 472.63262834 77.50082397 472.64411926 C64.95460161 472.66581067 52.40839679 472.67437895 39.86216014 472.67915427 C38.83891803 472.67954603 38.83891803 472.67954603 37.79500437 472.67994571 C36.76975103 472.68033612 36.76975103 472.68033612 35.7237855 472.68073442 C28.15573819 472.68381443 20.58769439 472.69031833 13.01964951 472.6969471 C-9.82977821 472.71659661 -32.67920213 472.73300027 -55.52863884 472.73582363 C-56.62530208 472.73596472 -56.62530208 472.73596472 -57.74412014 472.73610866 C-60.70710154 472.73648715 -63.67008294 472.73685115 -66.63306435 472.73721164 C-68.86328639 472.73748337 -71.09350843 472.73776004 -73.32373047 472.73803711 C-74.42915522 472.73816914 -74.42915522 472.73816914 -75.55691179 472.73830384 C-98.7181545 472.74121001 -121.87931379 472.76331127 -145.04052734 472.79956055 C-171.0476222 472.84026261 -197.05466022 472.86398201 -223.06178868 472.86428314 C-225.83353178 472.86437997 -228.60527488 472.8645467 -231.37701797 472.86476326 C-232.0595177 472.86480737 -232.74201742 472.86485149 -233.44519895 472.86489694 C-244.4412198 472.86601805 -255.43715726 472.88344501 -266.43315123 472.90658258 C-277.47926021 472.92939489 -288.52527947 472.93324485 -299.57140957 472.91903328 C-305.5588449 472.91183796 -311.54599055 472.91283449 -317.53339386 472.93544388 C-323.00972749 472.95592596 -328.48554674 472.95353473 -333.96187414 472.93256903 C-335.94773219 472.92905343 -337.93362655 472.93407081 -339.91943692 472.94827347 C-342.61047663 472.96628637 -345.29967789 472.95375339 -347.99065971 472.93332577 C-348.76921375 472.94588914 -349.54776779 472.95845251 -350.34991437 472.9713966 C-354.31756575 472.90652439 -356.1291907 472.45576061 -359.29330838 469.98292691 C-363.17557036 464.84854702 -361.95715779 458.41242234 -361.3125 452.3125 C-358.62356315 439.10507488 -351.11841354 428.22863865 -340.3125 420.3125 C-333.83992541 416.34543815 -327.94306522 413.60598328 -320.3125 413.3125 C-320.04953125 412.43464844 -319.7865625 411.55679687 -319.515625 410.65234375 C-318.33520101 407.37551742 -316.94437813 404.79530188 -315.0625 401.875 C-314.50046875 400.98941406 -313.9384375 400.10382813 -313.359375 399.19140625 C-311.7148483 396.87839827 -310.03651021 394.77338192 -308.18457031 392.63256836 C-307.37696259 391.69700356 -307.37696259 391.69700356 -306.55303955 390.74253845 C-305.93897247 390.03466942 -305.93897247 390.03466942 -305.3125 389.3125 C-305.91527267 389.30663376 -306.51804535 389.30076752 -307.13908386 389.29472351 C-313.41733091 389.2307499 -319.69506725 389.14631978 -325.97290039 389.05004883 C-328.31527978 389.01681094 -330.65773904 388.9887755 -333.00024414 388.96606445 C-336.36899833 388.93249832 -339.73702131 388.88017981 -343.10546875 388.82421875 C-344.15147751 388.81782883 -345.19748627 388.8114389 -346.27519226 388.80485535 C-355.46831087 388.61929265 -355.46831087 388.61929265 -359.3125 385.3125 C-362.03740663 381.22514006 -361.85268868 378.11087644 -361.3125 373.3125 C-360.48128123 370.27500548 -359.27276777 367.48113622 -357.97265625 364.6171875 C-357.44247391 363.39646294 -357.44247391 363.39646294 -356.90158081 362.15107727 C-355.74132662 359.48955896 -354.55836203 356.83881433 -353.375 354.1875 C-352.55712676 352.32269981 -351.74082467 350.45720982 -350.92602539 348.59106445 C-349.24090069 344.73831812 -347.54673491 340.88975061 -345.84472656 337.04443359 C-343.04624823 330.71879283 -340.28459469 324.37741583 -337.52720642 318.03378296 C-335.7247697 313.88747511 -333.91972756 309.74239289 -332.10473633 305.6015625 C-329.16118719 298.88335257 -326.22959128 292.16486146 -323.42578125 285.38671875 C-323.01529541 284.39969971 -322.60480957 283.41268066 -322.18188477 282.39575195 C-321.47219616 280.67872345 -320.77224247 278.95761222 -320.08569336 277.23120117 C-318.19350101 272.65970893 -316.1996961 269.55389994 -312.3125 266.3125 C-308.33430295 264.92877929 -306.59048083 265.21983972 -302.5625 266.5625 C-299.3125 268.3125 -299.3125 268.3125 -297.3125 271.3125 C-295.88637578 279.38690769 -298.74390084 285.67842297 -302.1875 292.8125 C-303.28623078 295.18198249 -304.38112234 297.55299751 -305.47265625 299.92578125 C-305.77018295 300.56771927 -306.06770966 301.20965729 -306.37425232 301.87104797 C-310.66091635 311.15794907 -314.6176887 320.59025013 -318.625 330 C-319.75911948 332.65854226 -320.89395315 335.31677682 -322.02955627 337.97468567 C-322.71445882 339.57806332 -323.3985914 341.18177029 -324.08164978 342.78593445 C-327.43842869 350.65248635 -330.88379477 358.47545948 -334.3125 366.3125 C-278.3775 366.8075 -278.3775 366.8075 -221.3125 367.3125 C-220.75685708 351.27741339 -220.75685708 351.27741339 -227.99008179 340.67253113 C-228.78483917 339.98008804 -229.57959656 339.28764496 -230.3984375 338.57421875 C-231.61752304 337.40400932 -231.61752304 337.40400932 -232.86123657 336.2101593 C-235.43043865 333.76013653 -238.05374452 331.38030493 -240.6875 329 C-243.29943641 326.56089105 -245.89844709 324.10886833 -248.49234009 321.65058899 C-250.10065665 320.13493489 -251.72172261 318.63266155 -253.35702515 317.14616394 C-257.29751462 313.51738611 -260.45701586 310.47645223 -262.3125 305.3125 C-262.3125 300.93683957 -261.78334778 298.93132851 -259.125 295.4375 C-255.93335694 293.02603636 -254.30110061 292.3125 -250.3125 292.3125 C-245.59101639 294.26611986 -242.47761672 296.79152828 -238.9140625 300.41796875 C-238.19432755 301.14407097 -238.19432755 301.14407097 -237.46005249 301.88484192 C-235.94527652 303.41626667 -234.44133301 304.95783589 -232.9375 306.5 C-231.90564914 307.54691556 -230.87310333 308.59314664 -229.83984375 309.63867188 C-227.3226481 312.18875299 -224.81505097 314.74803614 -222.3125 317.3125 C-221.55756152 307.67510256 -221.04106134 298.03659786 -220.75 288.375 C-220.72874683 287.67159359 -220.70749367 286.96818718 -220.68559647 286.24346542 C-219.76458231 264.06112959 -219.76458231 264.06112959 -229.49635315 244.89866638 C-234.12047903 240.2467955 -239.34529581 236.32633541 -244.90405273 232.86645508 C-247.3125 231.3125 -247.3125 231.3125 -248.3125 229.3125 C-248.88230057 222.36093305 -248.88230057 222.36093305 -246.75 218.4375 C-243.60574208 215.69635207 -241.44966835 214.87347198 -237.3125 214.3125 C-232.25785272 215.59913749 -229.71421322 217.73473775 -226.08984375 221.4453125 C-225.02431274 222.53030029 -225.02431274 222.53030029 -223.93725586 223.63720703 C-223.40108643 224.19005371 -222.86491699 224.74290039 -222.3125 225.3125 C-222.30839111 224.24813721 -222.30428223 223.18377441 -222.30004883 222.0871582 C-222.27822552 218.12638366 -222.22390394 214.16659805 -222.15991211 210.20629883 C-222.13675975 208.49448141 -222.12234285 206.7825221 -222.11694336 205.07055664 C-222.10763297 202.60473502 -222.06660221 200.14113626 -222.01953125 197.67578125 C-222.0234639 196.91413162 -222.02739655 196.15248199 -222.03144836 195.36775208 C-221.92305195 191.39254061 -221.46941442 189.51191173 -218.9831543 186.35229492 C-215.61081797 183.77656862 -213.54320454 183.3125 -209.3125 183.3125 C-205.29730937 184.82766628 -203.70881647 185.7180253 -201.3125 189.3125 C-201.07176865 192.06468977 -200.93967312 194.72467466 -200.8984375 197.48046875 C-200.86938828 198.67268791 -200.86938828 198.67268791 -200.8397522 199.88899231 C-200.78000558 202.42588595 -200.73359117 204.96282509 -200.6875 207.5 C-200.64931565 209.22072284 -200.61026365 210.94142665 -200.5703125 212.66210938 C-200.47430821 216.87875165 -200.39025924 221.0954834 -200.3125 225.3125 C-199.77633057 224.75965332 -199.24016113 224.20680664 -198.68774414 223.63720703 C-197.97739014 222.91388184 -197.26703613 222.19055664 -196.53515625 221.4453125 C-195.83398682 220.72746582 -195.13281738 220.00961914 -194.41040039 219.27001953 C-191.39687959 216.45814827 -189.32509477 215.33388776 -185.3125 214.3125 C-181.17533165 214.87347198 -179.01925792 215.69635207 -175.875 218.4375 C-174.26758562 221.39514245 -173.41397609 223.70964137 -173.640625 227.109375 C-175.63292317 233.64225971 -182.20672892 238.54659352 -187.53710938 242.44726562 C-195.0588837 248.330081 -200.44294037 253.71825996 -201.69360352 263.50610352 C-202.14801798 271.09448161 -201.8886903 278.63586226 -201.47979736 286.22064209 C-201.30341809 289.84653567 -201.22774372 293.47453719 -201.14257812 297.10351562 C-200.96219106 304.17821195 -200.67355883 311.24452178 -200.3125 318.3125 C-199.65241943 317.63147217 -198.99233887 316.95044434 -198.31225586 316.2487793 C-195.8397936 313.70782417 -193.35832953 311.17637385 -190.87036133 308.65063477 C-189.79894968 307.55920578 -188.73116729 306.46420099 -187.66723633 305.36547852 C-186.1302042 303.77949174 -184.58023278 302.20716461 -183.02734375 300.63671875 C-182.56037582 300.14910568 -182.0934079 299.66149261 -181.61228943 299.15910339 C-178.08111632 295.62561078 -174.97827724 293.88374278 -170.3125 292.3125 C-166.17533165 292.87347198 -164.01925792 293.69635207 -160.875 296.4375 C-158.84171928 300.17873652 -158.18489011 303.22074373 -159.3125 307.3125 C-163.42216571 313.23014757 -169.11580962 318.05443637 -174.3984375 322.8984375 C-176.70803463 325.07820066 -179.01013313 327.2657033 -181.31201172 329.45361328 C-182.8925063 330.93989544 -184.48699461 332.41143904 -186.09521484 333.86767578 C-188.44646056 336.004253 -190.73642896 338.19347074 -193.0234375 340.3984375 C-194.09831924 341.33700089 -194.09831924 341.33700089 -195.19491577 342.29452515 C-201.4678245 348.52442469 -201.27494571 355.29888283 -201.3500061 363.68838501 C-201.33762909 364.88434296 -201.32525208 366.0803009 -201.3125 367.3125 C-200.08554413 367.30361755 -198.85858826 367.29473511 -197.5944519 367.2855835 C-186.02948253 367.20448382 -174.46457089 367.14452779 -162.89938164 367.10525131 C-156.95363383 367.08438001 -151.00811565 367.05607012 -145.0625 367.01074219 C-139.32423776 366.96726903 -133.58619635 366.94335946 -127.84778214 366.93299103 C-125.65891163 366.92560237 -123.47005316 366.91117408 -121.2812767 366.88957977 C-118.21443346 366.8605269 -115.14850177 366.85654488 -112.08154297 366.85839844 C-111.17739151 366.84401733 -110.27324005 366.82963623 -109.34169006 366.81481934 C-103.70851658 366.85163945 -100.63298178 367.61811031 -96.3125 371.3125 C-94.57618364 374.78513273 -94.71059598 378.52443013 -95.3125 382.3125 C-97.49409145 385.06819447 -99.18427494 386.74838747 -102.3125 388.3125 C-105.30197039 388.43544769 -108.26961867 388.49828769 -111.26025391 388.51782227 C-112.18713516 388.52772186 -113.11401642 388.53762146 -114.06898499 388.54782104 C-117.14231789 388.5794882 -120.21566628 388.60421408 -123.2890625 388.62890625 C-125.41613168 388.64947127 -127.54319674 388.67046762 -129.67025757 388.69187927 C-135.27621116 388.74714658 -140.88220192 388.7965353 -146.48822021 388.84472656 C-152.20572223 388.8949076 -157.9231701 388.95061138 -163.640625 389.00585938 C-174.8645371 389.11349793 -186.08849617 389.21493022 -197.3125 389.3125 C-196.76101288 389.92439178 -196.20952576 390.53628357 -195.6413269 391.16671753 C-194.91905914 391.97263336 -194.19679138 392.77854919 -193.45263672 393.60888672 C-192.7361496 394.4064035 -192.01966248 395.20392029 -191.28146362 396.02560425 C-186.03278544 402.12179602 -181.93044244 409.40255916 -180.3125 417.3125 C-179.03375 417.374375 -177.755 417.43625 -176.4375 417.5 C-165.25197312 418.81285527 -156.44142274 426.02791871 -149.4921875 434.54296875 C-145.68102429 439.95328838 -143.84073255 444.99191863 -141.3125 451.3125 C-76.4675 451.8075 -76.4675 451.8075 -10.3125 452.3125 C-10.6425 431.1925 -10.9725 410.0725 -11.3125 388.3125 C-21.2125 386.8275 -21.2125 386.8275 -31.3125 385.3125 C-70.31363827 376.53724389 -104.07168587 353.39185372 -126 319.875 C-127.12368013 318.03259368 -128.2268596 316.17757453 -129.3125 314.3125 C-129.95832031 313.20777344 -130.60414063 312.10304688 -131.26953125 310.96484375 C-144.06595653 288.39158131 -149.76094197 263.9190343 -149.625 238.0625 C-149.62317719 237.33949707 -149.62135437 236.61649414 -149.61947632 235.87158203 C-149.57250028 224.78340088 -149.04124985 214.09858208 -146.3125 203.3125 C-146.14621094 202.62414062 -145.97992188 201.93578125 -145.80859375 201.2265625 C-140.09359327 178.11256054 -128.7191302 158.07872455 -114.06103516 139.52880859 C-111.72912233 136.57305537 -109.42411433 133.59679331 -107.11743164 130.62133789 C-102.92142428 125.21185719 -98.70668867 119.81695073 -94.4921875 114.421875 C-93.86562256 113.6187085 -93.23905762 112.81554199 -92.59350586 111.98803711 C-91.40285382 110.46183911 -90.21104112 108.93654555 -89.01782227 107.41235352 C-85.66975787 103.11918688 -82.44607227 98.76485687 -79.3125 94.3125 C-82.13564782 92.43040145 -84.51661968 91.39238565 -87.6875 90.25 C-88.62335938 89.90839844 -89.55921875 89.56679687 -90.5234375 89.21484375 C-105.87893362 84.24688912 -123.75610429 86.86480882 -138 93.875 C-149.94565176 100.91758574 -162.06908889 112.84336423 -166.3125 126.3125 C-165.84866219 131.06673067 -164.29881048 135.06060906 -162.3359375 139.36328125 C-161.74137088 140.71513592 -161.14764691 142.06736146 -160.5546875 143.41992188 C-159.62423843 145.52372703 -158.68788369 147.62415551 -157.73632812 149.71850586 C-151.08274208 164.42452179 -151.08274208 164.42452179 -153.3125 172.3125 C-155.6544423 174.91465811 -157.46603436 175.97836883 -160.6875 177.25 C-164.6199478 177.34362971 -166.92382124 176.28409492 -170.3125 174.3125 C-173.13087124 169.85192551 -175.33298794 165.25486734 -177.45703125 160.421875 C-177.74370667 159.77190552 -178.03038208 159.12193604 -178.32574463 158.45227051 C-179.26285914 156.3240918 -180.19411526 154.1934102 -181.125 152.0625 C-181.7836236 150.56210898 -182.44239915 149.06178466 -183.10131836 147.56152344 C-189.42929355 133.13009183 -195.64851788 118.65118397 -201.81904602 104.15179443 C-203.22537085 100.84855379 -204.64169564 97.55025303 -206.07763672 94.25976562 C-206.35844589 93.61352234 -206.63925507 92.96727905 -206.92857361 92.30145264 C-207.69781547 90.5328726 -208.47073359 88.76589285 -209.24389648 86.99902344 C-210.3125 84.3125 -210.3125 84.3125 -210.3125 82.3125 C-210.9725 82.3125 -211.6325 82.3125 -212.3125 82.3125 C-212.70928955 83.56708008 -213.1060791 84.82166016 -213.51489258 86.11425781 C-215.38471985 91.71425851 -217.70316382 97.08135657 -220.07421875 102.484375 C-220.53718857 103.54790695 -221.00015839 104.6114389 -221.47715759 105.7071991 C-222.98128267 109.16049905 -224.49065342 112.61147948 -226 116.0625 C-227.04583009 118.4614869 -228.09123691 120.86065836 -229.13623047 123.26000977 C-231.22369007 128.05237308 -233.31270481 132.8440535 -235.40283203 137.63525391 C-238.94302577 145.75448109 -242.4611032 153.88318366 -245.972229 162.01501465 C-246.92974168 164.23203642 -247.88827835 166.44861253 -248.84716797 168.66503906 C-251.6182069 175.07093347 -254.38550081 181.47836939 -257.13977051 187.89149475 C-258.34796438 190.70354429 -259.55877419 193.51446322 -260.7699585 196.32522583 C-261.33088441 197.62892112 -261.89053938 198.93316413 -262.4487915 200.23800659 C-263.20874971 202.01421244 -263.97340674 203.78840567 -264.73828125 205.5625 C-265.16536377 206.55765625 -265.59244629 207.5528125 -266.0324707 208.578125 C-268.00761767 212.79739757 -269.38518816 215.6942921 -273.3125 218.3125 C-276.37776351 218.85781842 -279.24658329 218.85575893 -282.3125 218.3125 C-285.06819447 216.13090855 -286.74838747 214.44072506 -288.3125 211.3125 C-288.18396046 202.60853718 -284.66409629 195.373001 -281.1875 187.5625 C-280.52954419 186.05953306 -279.87284795 184.55601421 -279.21728516 183.05200195 C-277.75099676 179.69237526 -276.27789615 176.33583715 -274.80078125 172.98095703 C-272.06356537 166.75610032 -269.35877677 160.51732335 -266.65625 154.27734375 C-265.66813509 151.99625496 -264.68001657 149.71516774 -263.69189453 147.43408203 C-263.19739807 146.2924762 -262.70290161 145.15087036 -262.19342041 143.97467041 C-259.70269316 138.22771578 -257.20689616 132.48296533 -254.7109375 126.73828125 C-254.23550507 125.64392761 -253.76007263 124.54957397 -253.27023315 123.42205811 C-252.36242701 121.33249024 -251.45460121 119.24293091 -250.54675293 117.15338135 C-248.30957933 112.00407637 -246.07247133 106.85474423 -243.83837891 101.70410156 C-242.83949845 99.40204171 -241.83922667 97.10058494 -240.83740234 94.79980469 C-238.31876282 89.00230856 -235.8362087 83.19252374 -233.39941406 77.36022949 C-232.0422909 74.1144217 -230.6765034 70.87228645 -229.31054688 67.63018799 C-228.65362729 66.06353603 -228.00115863 64.49500906 -227.35351562 62.92449951 C-226.45493685 60.74569324 -225.54150876 58.57365651 -224.625 56.40234375 C-224.23356812 55.43579613 -224.23356812 55.43579613 -223.83422852 54.44972229 C-222.0111431 50.18483724 -219.8289641 47.32656248 -216.3125 44.3125 C-212.69082268 43.05278615 -210.57447619 43.26104039 -206.8125 44 C-198.40797356 48.1343467 -194.17151064 65.33484362 -190.6159668 73.67700195 C-189.62114473 76.00903742 -188.61855925 78.33762767 -187.61523438 80.66601562 C-184.55435587 87.80236073 -181.58172171 94.87591199 -179.3125 102.3125 C-178.6525 102.3125 -177.9925 102.3125 -177.3125 102.3125 C-177.05082031 101.57386719 -176.78914062 100.83523437 -176.51953125 100.07421875 C-170.5074664 86.31845872 -152.67010697 76.00235983 -139.3125 70.3125 C-116.62920945 61.95398854 -92.6272147 63.39957703 -70.765625 73.26171875 C-68.6088503 74.18556014 -66.60120955 74.82588185 -64.3125 75.3125 C-56.54049222 65.44680849 -48.81586933 55.54501864 -41.11083984 45.62695312 C-37.60352435 41.11305809 -34.09345979 36.60129983 -30.58300781 32.08984375 C-27.55084598 28.19256877 -24.52143393 24.29319851 -21.49609375 20.390625 C-20.86896484 19.58238281 -20.24183594 18.77414063 -19.59570312 17.94140625 C-18.40212574 16.40301762 -17.20936155 14.86399757 -16.01757812 13.32421875 C-5.81898395 0.18581629 -5.81898395 0.18581629 0 0 Z M-0.3125 27.3125 C-1.03953125 28.29347656 -1.7665625 29.27445313 -2.515625 30.28515625 C-8.20000392 37.92574821 -13.97760399 45.46783418 -19.95458984 52.88183594 C-23.49464489 57.27662569 -26.96258876 61.7173738 -30.39208984 66.19921875 C-33.92641982 70.8170761 -37.49033604 75.41135465 -41.0625 80 C-41.65530762 80.76159424 -42.24811523 81.52318848 -42.85888672 82.30786133 C-44.07184681 83.86595805 -45.28490086 85.42398163 -46.49804688 86.98193359 C-49.43763336 90.75767264 -52.37500584 94.53513307 -55.3125 98.3125 C-58.85822028 102.87199384 -62.40449896 107.4310484 -65.953125 111.98828125 C-71.88784628 119.61132841 -77.80932199 127.24338789 -83.6875 134.91015625 C-85.67294699 137.4920129 -87.67732004 140.05845083 -89.6875 142.62109375 C-93.25223211 147.16726446 -96.79335424 151.73095098 -100.3125 156.3125 C-101.04098145 157.25875244 -101.04098145 157.25875244 -101.78417969 158.22412109 C-123.60594905 186.81735576 -131.47339683 220.77839114 -128.01220703 256.40332031 C-123.38219878 289.75117594 -104.51539032 320.54654265 -78.125 341.125 C-58.86836423 355.5921592 -34.71176509 366.4919874 -10.3125 366.3125 C-5.6208186 335.45935127 -5.6208186 335.45935127 -15.12273788 306.88839722 C-23.48403824 296.11006945 -33.7694304 287.05747274 -44.03594971 278.14544678 C-48.51168927 274.20750066 -52.84221 270.11579693 -57.1875 266.03515625 C-64.17546365 259.49992142 -71.23404651 253.05677335 -78.4309845 246.75190735 C-79.04796707 246.20725327 -79.66494965 245.66259918 -80.30062866 245.10144043 C-80.83711218 244.63211845 -81.3735957 244.16279648 -81.92633629 243.67925262 C-83.95339153 241.68058316 -85.23661237 240.02249949 -85.54296875 237.15625 C-85.52878906 236.3828125 -85.51460938 235.609375 -85.5 234.8125 C-85.49355469 234.0390625 -85.48710937 233.265625 -85.48046875 232.46875 C-85.3125 230.3125 -85.3125 230.3125 -84.3125 227.3125 C-79.67987307 225.10648717 -76.22091204 224.87382751 -71.3125 226.3125 C-64.51892887 231.21604714 -58.75869914 237.74620049 -52.86703682 243.68279839 C-51.15889885 245.40384685 -49.44752731 247.12162253 -47.7353363 248.83863831 C-44.11237947 252.47293205 -40.49341958 256.11118955 -36.875 259.75 C-32.65559047 263.9930119 -28.4345579 268.23438329 -24.20933342 272.4716053 C-22.52044716 274.1669892 -20.83458825 275.86534508 -19.14881897 277.56382751 C-18.12352897 278.59274641 -17.09810035 279.6215272 -16.07250977 280.65014648 C-15.1750856 281.55280746 -14.27766144 282.45546844 -13.3530426 283.38548279 C-11.65909912 285.42693217 -11.65909912 285.42693217 -10.3125 285.3125 C-9.03915505 271.70499225 -8.1743872 258.09621394 -7.6875 244.4375 C-7.65184181 243.43910095 -7.61618362 242.4407019 -7.57944489 241.41204834 C-6.52750855 208.26834894 -6.52750855 208.26834894 -22.36782837 180.3755188 C-29.35973174 173.23113663 -37.37406486 166.83258683 -45.6829834 161.28756714 C-52.6906354 156.59505998 -52.6906354 156.59505998 -53.96923828 152.625 C-54.41561033 148.31747796 -53.49327392 146.01981567 -51.3125 142.3125 C-48.97316823 140.45716791 -47.40354658 140.32437564 -44.4375 139.9375 C-38.09090775 140.69909107 -33.80391846 145.54323247 -29.51171875 149.953125 C-28.98987503 150.48017029 -28.46803131 151.00721558 -27.93037415 151.55023193 C-26.28202451 153.21624428 -24.64060135 154.88885993 -23 156.5625 C-21.34063072 158.24947342 -19.67981138 159.93495527 -18.0160675 161.61761475 C-16.98497172 162.6609911 -15.95656055 163.70702848 -14.93107605 164.75592041 C-13.74361199 165.96020503 -12.53061752 167.13923019 -11.3125 168.3125 C-10.9825 168.3125 -10.6525 168.3125 -10.3125 168.3125 C-10.30370064 166.68211037 -10.30370064 166.68211037 -10.29472351 165.01878357 C-10.23745171 154.76366674 -10.16466664 144.50876105 -10.07678509 134.25385952 C-10.03210286 128.98199944 -9.99284188 123.71021626 -9.96606445 118.43823242 C-9.94001024 113.34821407 -9.89959252 108.25849198 -9.84931374 103.1686573 C-9.83265941 101.22909296 -9.82113621 99.28947739 -9.81488609 97.34985161 C-9.80522948 94.62802116 -9.77715149 91.90694619 -9.74487305 89.18530273 C-9.74702568 87.98875565 -9.74702568 87.98875565 -9.7492218 86.76803589 C-9.66248874 81.57941306 -8.72527373 77.92932583 -6.3125 73.3125 C-3.21957343 70.85948927 -0.15937091 70.91996215 3.6875 71.3125 C8.31985294 73.57720588 8.31985294 73.57720588 9.6875 76.3125 C9.81036155 79.24091546 9.87327144 82.14706398 9.89282227 85.07666016 C9.90272186 85.98403427 9.91262146 86.89140839 9.92282104 87.82627869 C9.95448609 90.8346798 9.97921324 93.84309673 10.00390625 96.8515625 C10.02447146 98.93379128 10.04546781 101.01601584 10.06687927 103.09823608 C10.1221447 108.58582145 10.17153424 114.07344476 10.21972656 119.56109619 C10.26990897 125.15795276 10.32561203 130.75475404 10.38085938 136.3515625 C10.48849562 147.33849446 10.58992843 158.32547437 10.6875 169.3125 C11.79970511 168.36728725 12.91075147 167.42071095 14.02131653 166.47357178 C14.64015622 165.94659573 15.25899591 165.41961967 15.89658833 164.87667465 C18.32060541 162.75954842 20.57381838 160.50297254 22.82421875 158.203125 C23.73107422 157.28402344 24.63792969 156.36492187 25.57226562 155.41796875 C26.98280989 153.98250495 28.39166074 152.54544768 29.7980957 151.10595703 C31.17735055 149.6964752 32.56320295 148.29345898 33.94921875 146.890625 C34.76350342 146.05950195 35.57778809 145.22837891 36.41674805 144.37207031 C39.46414632 141.60808237 41.53914881 140.43466502 45.625 140 C49.23847993 140.36872244 50.92988199 140.93788449 53.6875 143.3125 C55.50833213 147.25763627 55.92828036 149.40331767 54.8112793 153.62109375 C52.8705103 157.81914962 49.70640102 159.76839854 45.94468689 162.28756714 C31.11739843 172.23920118 13.29989345 185.77919001 9.49493408 204.34191895 C5.18417886 231.04998097 8.18122877 259.52941563 10.6875 286.3125 C15.49145654 282.31150374 20.00334859 278.1233699 24.390625 273.671875 C24.9950946 273.06361877 25.59956421 272.45536255 26.22235107 271.82867432 C28.12987772 269.9090548 30.03408963 267.98620054 31.9375 266.0625 C34.46065748 263.51274297 36.98711627 260.96632417 39.515625 258.421875 C40.37815887 257.54689362 40.37815887 257.54689362 41.25811768 256.65423584 C47.4412703 250.43310287 47.4412703 250.43310287 52.5625 249.9375 C55.66774863 250.02899904 56.79259776 250.37063919 59.625 251.9375 C62.19716932 254.89939195 62.6875 256.3933576 62.6875 260.3125 C60.80250632 267.50779015 55.88778745 270.97412723 50.29655075 275.57454491 C21.29233249 298.46260576 21.29233249 298.46260576 7.4453125 330.89453125 C6.82800859 343.1217383 8.30176787 355.33440186 10.6875 367.3125 C13.6778945 366.86166964 16.6672301 366.40509768 19.65625 365.9453125 C20.49124023 365.82003174 21.32623047 365.69475098 22.18652344 365.56567383 C55.64397177 360.38464178 85.53176907 341.40652041 105.6875 314.3125 C108.58040943 310.09345095 111.18690412 305.77424871 113.6875 301.3125 C114.19410156 300.4160376 114.19410156 300.4160376 114.7109375 299.50146484 C119.08447928 291.65251933 122.44874477 283.72623013 125.0625 275.125 C125.3011377 274.3424585 125.53977539 273.55991699 125.78564453 272.75366211 C129.06070675 261.3122571 130.05541315 249.92803891 130 238.0625 C129.99436035 236.78979248 129.9887207 235.51708496 129.98291016 234.20581055 C129.53828018 199.63252826 114.56389462 172.91218819 93.6875 146.3125 C93.24647949 145.74917969 92.80545898 145.18585938 92.35107422 144.60546875 C89.59972294 141.09167094 86.84083113 137.58387257 84.07861328 134.07861328 C81.77875768 131.15878958 79.48330474 128.23550912 77.1875 125.3125 C74.47413406 121.85820963 71.76024644 118.40433949 69.04296875 114.953125 C63.29797113 107.65359862 57.58546383 100.329451 51.88623047 92.99414062 C46.95091069 86.64466972 41.98899252 80.31658164 37.01416016 73.99804688 C34.73663794 71.10441173 32.46225993 68.20830677 30.1875 65.3125 C29.2708477 64.14582204 28.35418105 62.97915536 27.4375 61.8125 C21.9375 54.8125 21.9375 54.8125 20.56054688 53.05981445 C19.65064975 51.90189594 18.74049659 50.74417857 17.83007812 49.58666992 C15.43261833 46.53781996 13.04068064 43.48483501 10.65625 40.42578125 C10.15931641 39.78962891 9.66238281 39.15347656 9.15039062 38.49804688 C8.19952399 37.28058212 7.25021659 36.06189738 6.30273438 34.84179688 C4.21872452 32.17663884 2.10897873 29.67248224 -0.3125 27.3125 Z M-290.3125 404.3125 C-295.95505251 411.31590341 -300.18744535 418.41563494 -303.75 426.625 C-305.67880533 429.94254517 -306.76259266 430.83337194 -310.3125 432.3125 C-312.03809805 432.60521049 -313.76793405 432.87337406 -315.5 433.125 C-324.13108723 434.54412755 -330.64998138 438.88397233 -336.25390625 445.50390625 C-337.67329344 447.70345035 -337.67329344 447.70345035 -338.3125 452.3125 C-280.8925 452.3125 -223.4725 452.3125 -164.3125 452.3125 C-166.8177352 446.049412 -170.35716291 442.45724074 -176.30078125 439.234375 C-180.52590235 437.50707098 -184.59053796 436.9182168 -189.13671875 436.71875 C-192.16622403 436.15309731 -193.88513653 435.2323596 -196.3125 433.3125 C-197.47060239 430.93809911 -198.35427317 428.79181273 -199.1875 426.3125 C-204.36703904 412.36267793 -212.43068459 401.28987992 -225.95703125 394.37109375 C-232.53998014 391.4125877 -239.06023346 388.83993757 -246.3125 388.3125 C-247.00085938 388.24933594 -247.68921875 388.18617188 -248.3984375 388.12109375 C-263.6128991 387.3376248 -279.57698731 393.57698731 -290.3125 404.3125 Z M77.6875 421.3125 C73.04848615 428.90571173 71.54918868 435.26857489 71.1640625 444.0859375 C70.6875 447.3125 70.6875 447.3125 67.6875 452.3125 C87.4875 452.3125 107.2875 452.3125 127.6875 452.3125 C130.54199387 443.74901838 131.50522092 435.09821493 127.4375 426.75 C126.55701861 425.24901222 125.64443871 423.76593734 124.6875 422.3125 C124.089375 421.384375 123.49125 420.45625 122.875 419.5 C116.89877249 413.52377249 109.86778831 410.30403427 101.4375 409.9375 C91.92196095 410.15699005 83.86173219 414.04062654 77.6875 421.3125 Z M31.3125 448.9375 C29.59338601 450.97043186 29.59338601 450.97043186 29.6875 452.3125 C37.9375 452.3125 46.1875 452.3125 54.6875 452.3125 C50.70557227 446.11359685 50.70557227 446.11359685 44.6875 443.3125 C39.0834675 442.47189513 35.01689242 444.84317154 31.3125 448.9375 Z " transform="translate(361.3125,19.6875)"/>
  <path d="M0 0 C0.825 -0.01289063 1.65 -0.02578125 2.5 -0.0390625 C6.21017354 0.94645235 7.62019584 2.63429012 10 5.625 C10.7204347 8.50538652 10.70197247 11.29204157 10.6640625 14.25 C10.66884613 15.0745166 10.67362976 15.8990332 10.67855835 16.74853516 C10.68195122 18.48667313 10.67279153 20.22487544 10.65185547 21.96289062 C10.62507729 24.61733825 10.65161996 27.26755825 10.68359375 29.921875 C10.68028954 31.61459263 10.67388306 33.30730763 10.6640625 35 C10.67418365 35.78971191 10.68430481 36.57942383 10.69473267 37.39306641 C10.60478994 41.64043209 10.3616754 43.17950126 7.58349609 46.6015625 C3.80720925 49.55921373 1.80868335 50.0873734 -3 49.625 C-8.57894737 46.46710526 -8.57894737 46.46710526 -10 43.625 C-10.28474008 38.25710889 -10.31375869 32.88815738 -10.35009766 27.51342773 C-10.36665091 25.71804842 -10.3939329 23.92273484 -10.43212891 22.12768555 C-10.48696923 19.53659959 -10.50878148 16.94705732 -10.5234375 14.35546875 C-10.54610687 13.55634567 -10.56877625 12.7572226 -10.59213257 11.93388367 C-10.57597623 7.65984619 -10.3727005 6.0961403 -7.62353516 2.62084961 C-4.77744211 0.45568949 -3.52610461 -0.05509538 0 0 Z " transform="translate(256,19.375)"/>
  <path d="M0 0 C3.05788048 1.95541883 5.47689565 4.40653019 8 7 C8.66773438 7.64453125 9.33546875 8.2890625 10.0234375 8.953125 C16.13818891 14.89316922 16.13818891 14.89316922 16.375 20.3125 C16.32771103 23.98330645 16.09753469 24.86230396 13.875 28 C10.62399027 30.26157198 8.95490344 31 5 31 C-2.89002439 29.0274939 -8.8142314 22.55239092 -13.375 16.03515625 C-15.0204818 12.79561397 -14.97156145 10.82936868 -14.375 7.25 C-11.60909497 0.7124063 -7.0861126 -1.51220392 0 0 Z " transform="translate(218,48)"/>
  <path d="M0 0 C3.60185638 1.78935906 5.65271868 4.06029761 7.0625 7.875 C6.92331921 14.83403975 3.9117092 18.36833192 -0.75 23.25 C-4.69165682 27.0028692 -7.65931886 29.79078918 -13 31 C-17.13716835 30.43902802 -19.29324208 29.61614793 -22.4375 26.875 C-24.47308059 23.12953171 -25.12229715 20.094868 -24 16 C-22.02399786 12.95463199 -19.59447089 10.52407827 -17 8 C-16.35546875 7.33226562 -15.7109375 6.66453125 -15.046875 5.9765625 C-10.30641154 1.09667365 -7.16028441 -1.16902603 0 0 Z " transform="translate(302,48)"/>
  <path d="M0 0 C3.02519989 2.05971056 4.66926776 3.51573824 5.48046875 7.15625 C5.7530672 11.57676536 5.43956037 13.44476585 2.625 17 C-1.47126303 20.12096231 -3.81739837 20.43920353 -9 20 C-12.03560696 18.17863582 -13.60600091 16.68054389 -15.375 13.625 C-16.17298003 10.27348387 -16.03027506 8.29688018 -15 5 C-10.30266704 -0.56263113 -7.10537645 -1.71509087 0 0 Z " transform="translate(444,245)"/>
  <path d="M0 0 C3.54281383 2.61860153 4.78669043 4.25341652 6 8.5 C6 13.32773113 4.52272814 15.42288871 1.25 18.8125 C-2.00171564 20.52868326 -4.37460162 20.38162088 -8 20 C-10.82275936 18.74544028 -12.46288541 17.71615278 -14.3125 15.25 C-15.32815881 11.9260257 -15.41796486 9.46313738 -15 6 C-11.24204866 -0.47523924 -7.13674183 -1.72266182 0 0 Z " transform="translate(73,253)"/>
  <script xmlns=""/>
</svg>