<svg xmlns="http://www.w3.org/2000/svg" fill="white" width="512" height="512">
  <path d="M0 0 C2.04735632 -0.00979479 4.09374346 -0.04094081 6.14086914 -0.07226562 C7.44217773 -0.07742187 8.74348633 -0.08257813 10.08422852 -0.08789062 C11.85382935 -0.10190918 11.85382935 -0.10190918 13.65917969 -0.11621094 C17.17653365 0.27624889 19.03286652 1.14460419 21.85375977 3.24023438 C30.82391383 17.05317101 24.10646931 45.38935873 21.04516602 60.37304688 C16.03224724 81.36046682 4.62460321 100.77697281 -13.77124023 112.65039062 C-35.29683909 125.78819469 -59.30340511 129.24023438 -84.14624023 129.24023438 C-83.81624023 187.98023438 -83.48624023 246.72023438 -83.14624023 307.24023438 C-75.88624023 299.98023438 -68.62624023 292.72023438 -61.14624023 285.24023438 C-61.80624023 280.62023437 -62.46624023 276.00023437 -63.14624023 271.24023438 C-67.06882836 234.57256275 -58.21208959 198.51559447 -37.14624023 168.24023438 C-36.44885742 167.23605469 -35.75147461 166.231875 -35.03295898 165.19726562 C-27.09900139 154.21736453 -17.77406757 143.69243764 -7.14624023 135.24023438 C-6.12530273 134.41652344 -5.10436523 133.5928125 -4.05249023 132.74414062 C10.32181054 121.30009792 10.32181054 121.30009792 17.54125977 121.17773438 C21.58374489 122.47438055 23.30047686 123.86088936 25.85375977 127.24023438 C27.03766691 130.71796162 27.03802139 132.5882317 26.04125977 136.11523438 C22.75956098 140.8033755 18.41119574 143.84045367 13.85375977 147.24023438 C-14.94224458 168.99831683 -35.59438282 199.03484026 -40.83061218 235.18081665 C-41.42175132 240.91079392 -41.30668051 246.64276348 -41.24389648 252.39648438 C-41.23684692 253.63688477 -41.22979736 254.87728516 -41.22253418 256.15527344 C-41.20429931 259.18372083 -41.17871967 262.21191197 -41.14624023 265.24023438 C-39.83198563 263.91598701 -39.83198563 263.91598701 -38.49118042 262.56498718 C-30.23045959 254.24343381 -21.96181541 245.92982644 -13.68536186 237.62391949 C-9.43067947 233.35358576 -5.17883102 229.08050823 -0.93334961 224.80102539 C3.16437578 220.67068837 7.26940014 216.54773697 11.37957382 212.42978859 C12.94586876 210.85795345 14.50952216 209.28348148 16.0704689 207.70633507 C18.25837335 205.49663322 20.45550862 203.29651968 22.6550293 201.09838867 C23.29736008 200.44527206 23.93969086 199.79215546 24.60148621 199.11924744 C29.02459485 194.72625649 32.87833219 191.24023438 39.41625977 191.24023438 C43.58700116 192.45354096 45.24487807 193.78730272 47.85375977 197.24023438 C49.24203219 201.68270612 48.97340585 204.15884088 46.85375977 208.24023438 C44.69795757 210.81852691 42.31965195 213.15315052 39.92553711 215.5090332 C39.21323441 216.22177399 38.5009317 216.93451477 37.76704407 217.66885376 C35.41497064 220.01884009 33.05245556 222.35802657 30.68969727 224.69726562 C29.05522443 226.32614225 27.42141345 227.95568325 25.78823853 229.58586121 C21.49088677 233.87176624 17.1846016 238.14858523 12.87640381 242.42358398 C8.48061985 246.78866363 4.09333076 251.16226283 -0.29467773 255.53515625 C-8.90356525 264.11188262 -17.52191291 272.67903563 -26.14624023 281.24023438 C-21.83506072 281.27320071 -17.52391415 281.29299705 -13.21264648 281.31054688 C-12.00080688 281.31997314 -10.78896729 281.32939941 -9.54040527 281.33911133 C24.804731 281.44383985 54.35620866 266.23784243 78.54125977 242.61523438 C79.68594727 241.43960938 79.68594727 241.43960938 80.85375977 240.24023438 C81.59625977 239.56541016 81.59625977 239.56541016 82.35375977 238.87695312 C103.82247161 218.84942796 116.5686197 186.98887389 117.95996094 158.02978516 C118.02276675 155.76530034 118.04317205 153.50557046 118.04125977 151.24023438 C118.0419043 150.43223389 118.04254883 149.6242334 118.04321289 148.79174805 C117.97239472 140.52292143 117.02625039 132.41626275 115.85375977 124.24023438 C114.62858643 124.13533691 114.62858643 124.13533691 113.37866211 124.02832031 C109.66022662 123.69992803 105.9447337 123.34535701 102.22875977 122.99023438 C100.3009668 122.82587891 100.3009668 122.82587891 98.33422852 122.65820312 C97.0902832 122.53574219 95.84633789 122.41328125 94.56469727 122.28710938 C93.42307129 122.18237305 92.28144531 122.07763672 91.10522461 121.96972656 C87.25960473 121.10693093 84.92047971 119.69249211 81.85375977 117.24023438 C79.85108956 112.99457353 79.63193858 111.02313269 80.91625977 106.49023438 C83.03303254 102.93951876 84.19022887 101.99168196 87.85375977 100.24023438 C99.97956459 98.56431013 119.9645214 100.316845 130.85375977 106.24023438 C135.36381832 110.47569527 136.02186452 115.20734139 137.04125977 121.05273438 C137.28779297 122.34920898 137.28779297 122.34920898 137.53930664 123.671875 C144.69770389 162.07218414 136.47623276 202.0464996 114.39770508 234.37207031 C109.498502 241.30196659 104.48726447 247.82654372 98.36767578 253.72631836 C96.69959503 255.33093864 96.69959503 255.33093864 94.91625977 257.74023438 C73.40830262 283.81048546 36.59735385 299.21125439 3.85375977 303.24023438 C-0.87072531 303.42765144 -5.59413996 303.42604881 -10.32177734 303.42553711 C-12.54667036 303.42769837 -14.77104568 303.44581989 -16.99584961 303.46484375 C-18.46134301 303.46765273 -19.9268383 303.46960503 -21.39233398 303.47070312 C-22.12463226 303.47865906 -22.85693054 303.48661499 -23.61141968 303.49481201 C-27.33115609 303.48217679 -30.59494106 303.2207339 -34.17797852 302.18847656 C-38.22186856 301.08565425 -42.01052964 300.17964095 -46.14624023 301.24023438 C-53.26021513 305.41989171 -58.66317157 312.06873966 -64.14624023 318.11523438 C-65.7070562 319.76643383 -67.27212948 321.41361999 -68.84155273 323.05664062 C-72.66023351 327.0727486 -76.42289194 331.1356962 -80.14624023 335.24023438 C-79.58031158 335.40431793 -79.01438293 335.56840149 -78.43130493 335.73745728 C-75.82684927 336.49595626 -73.22484697 337.26256816 -70.62280273 338.02929688 C-69.73278564 338.28718994 -68.84276855 338.54508301 -67.92578125 338.81079102 C-55.76171466 342.41144404 -45.72838696 347.86664669 -36.14624023 356.24023438 C-35.52362305 356.73136719 -34.90100586 357.2225 -34.25952148 357.72851562 C-27.80562297 362.87713129 -21.90588851 369.38154057 -19.14624023 377.24023438 C-18.48922119 377.07724854 -17.83220215 376.9142627 -17.15527344 376.74633789 C-13.42376853 376.11871844 -9.77208894 376.11627285 -6.00170898 376.14257812 C-5.23192215 376.14399307 -4.46213531 376.14540802 -3.66902161 376.14686584 C-1.22388735 376.15243831 1.22115345 376.16498567 3.66625977 376.17773438 C5.3296699 376.18275294 6.99308147 376.18731522 8.65649414 376.19140625 C12.72228505 376.20239872 16.78800659 376.21964427 20.85375977 376.24023438 C16.17543139 368.84968546 11.97715504 366.63321539 3.66625977 364.74023438 C2.15999023 364.44632812 2.15999023 364.44632812 0.62329102 364.14648438 C-2.60271199 363.09086703 -4.01843455 361.85341508 -6.14624023 359.24023438 C-7.41517192 355.43343931 -7.20229889 353.44695066 -6.14624023 349.55273438 C-4.18254228 346.30035963 -2.90927455 344.83781022 0.70922852 343.61132812 C9.7744777 342.04266023 19.04346352 344.90452299 26.47875977 350.06054688 C28.65206731 351.73806863 30.77239627 353.45046287 32.85375977 355.24023438 C35.82577078 353.84124721 38.42392963 352.19693085 41.10375977 350.30273438 C48.84885551 345.13092777 57.53885159 341.99231901 67.00610352 343.60742188 C70.5733515 344.82918545 71.90815774 346.32595239 73.91625977 349.49023438 C75.02339413 353.91877182 74.61880965 356.06829827 72.85375977 360.24023438 C69.6871229 364.55837556 64.31299338 364.86286785 59.39672852 366.08007812 C54.39374768 367.71831992 50.02649099 369.9230461 47.54125977 374.74023438 C46.25817826 377.40144045 45.47742366 379.42448451 44.85375977 382.24023438 C45.52890625 382.40894043 46.20405273 382.57764648 46.8996582 382.75146484 C53.54856194 384.47888742 59.80547279 386.63086777 66.10375977 389.36523438 C67.01198486 389.758479 67.92020996 390.15172363 68.85595703 390.55688477 C76.96253625 394.14924008 84.48125122 398.32798759 91.85375977 403.24023438 C92.44205566 403.62791992 93.03035156 404.01560547 93.63647461 404.41503906 C102.84668124 410.54513571 110.91023163 417.56039182 118.85375977 425.24023438 C119.8340918 426.14322266 119.8340918 426.14322266 120.83422852 427.06445312 C130.86638708 436.52470717 138.82751779 448.44595191 145.85375977 460.24023438 C146.19503906 460.80758301 146.53631836 461.37493164 146.88793945 461.95947266 C151.54927519 469.82575551 155.13086701 478.00047362 158.35375977 486.55273438 C158.87981812 487.91301758 158.87981812 487.91301758 159.41650391 489.30078125 C161.47296896 494.98651574 163.45381813 501.22020647 161.85375977 507.24023438 C159.05932689 510.85993856 157.59179354 512.11959009 153.01968193 512.8669802 C151.4842028 512.89332658 149.94810408 512.8921694 148.41256714 512.86944008 C147.56073231 512.87670728 146.70889748 512.88397449 145.83124948 512.89146191 C142.96314525 512.90977919 140.09636701 512.89232539 137.22827148 512.87515259 C135.15686291 512.88091111 133.08545943 512.88885041 131.0140667 512.89878881 C125.31128819 512.91972217 119.60892635 512.90931734 113.90614605 512.89385772 C107.76017577 512.88257471 101.61427864 512.89999175 95.46832275 512.91375732 C84.12075744 512.9347389 72.77336257 512.93287395 61.42580146 512.91919998 C50.94341958 512.90663033 40.46108659 512.90333489 29.97869873 512.9093132 C28.93638359 512.90988609 28.93638359 512.90988609 27.87301157 512.91047055 C25.05239678 512.9120272 22.231782 512.9136192 19.41116726 512.91526937 C-7.05726245 512.93057004 -33.52560723 512.91668811 -59.99402383 512.88978489 C-83.51811542 512.8660562 -107.0420717 512.86817931 -130.56616211 512.89208984 C-156.98566452 512.91885348 -183.40509186 512.929485 -209.82460594 512.91402853 C-212.64013034 512.9124249 -215.45565477 512.9108607 -218.2711792 512.9093132 C-219.31108709 512.90872012 -219.31108709 512.90872012 -220.37200321 512.90811506 C-230.84871037 512.90242375 -241.32536333 512.9090864 -251.80206299 512.92171097 C-263.71260886 512.93599164 -275.62299487 512.9319842 -287.53353453 512.90530725 C-293.6141311 512.89213835 -299.69445257 512.88706917 -305.7750473 512.90355301 C-311.33644033 512.91840168 -316.89730203 512.91034821 -322.45864654 512.88366525 C-324.47539102 512.87805869 -326.49217998 512.88096904 -328.50889611 512.89304419 C-331.24159301 512.90815698 -333.97244837 512.89275253 -336.70504761 512.86944008 C-337.49586471 512.88114591 -338.28668182 512.89285174 -339.10146308 512.90491229 C-343.14144698 512.83559257 -344.94107758 512.40461805 -348.13574409 509.84493673 C-350.89034771 506.27620442 -350.76502993 504.29878406 -350.5324707 499.94775391 C-349.86739183 495.28547531 -348.39909194 491.05844153 -346.70874023 486.67773438 C-346.34820557 485.7217334 -345.9876709 484.76573242 -345.61621094 483.78076172 C-329.40300974 441.9301089 -296.83945467 408.6834969 -256.14624023 390.24023438 C-248.66879488 386.95531404 -241.17368416 383.87848824 -233.14624023 382.24023438 C-235.83478078 373.91655589 -235.83478078 373.91655589 -242.14624023 368.24023438 C-246.13616048 366.42975444 -250.11837368 365.21885105 -254.39624023 364.30273438 C-258.30798712 363.19440609 -259.85012051 362.54664678 -262.14624023 359.24023438 C-263.41517192 355.43343931 -263.20229889 353.44695066 -262.14624023 349.55273438 C-260.18254228 346.30035963 -258.90927455 344.83781022 -255.29077148 343.61132812 C-246.2255223 342.04266023 -236.95653648 344.90452299 -229.52124023 350.06054688 C-227.34793269 351.73806863 -225.22760373 353.45046287 -223.14624023 355.24023438 C-220.17422922 353.84124721 -217.57607037 352.19693085 -214.89624023 350.30273438 C-207.15114449 345.13092777 -198.46114841 341.99231901 -188.99389648 343.60742188 C-185.4266485 344.82918545 -184.09184226 346.32595239 -182.08374023 349.49023438 C-180.97660587 353.91877182 -181.38119035 356.06829827 -183.14624023 360.24023438 C-185.70413769 363.83368201 -189.38908615 364.22125931 -193.45874023 365.11523438 C-199.16964394 366.50167298 -203.21307131 367.74518417 -207.14624023 372.24023438 C-207.84142 373.55892589 -208.51411788 374.89018121 -209.14624023 376.24023438 C-208.11217041 376.23499756 -207.07810059 376.22976074 -206.01269531 376.22436523 C-202.16423412 376.20622053 -198.31577668 376.19476779 -194.46728516 376.18530273 C-192.80386722 376.18028415 -191.14045368 376.17346785 -189.47705078 376.16479492 C-187.08161331 376.1526208 -184.68623433 376.14698123 -182.29077148 376.14257812 C-181.55099564 376.13741684 -180.81121979 376.13225555 -180.04902649 376.12693787 C-176.28540869 376.12653197 -172.80483642 376.33265129 -169.14624023 377.24023438 C-168.79819336 376.19222656 -168.79819336 376.19222656 -168.44311523 375.12304688 C-160.80057087 358.13449947 -141.52399148 346.49873239 -124.98608398 339.99804688 C-118.31362987 337.63901148 -112.29086137 336.5392564 -105.14624023 335.24023438 C-104.65124023 305.04523438 -104.65124023 305.04523438 -104.14624023 274.24023438 C-107.11624023 274.90023438 -110.08624023 275.56023437 -113.14624023 276.24023438 C-150.26045334 281.52801205 -187.76161842 270.55510934 -217.65795898 248.37695312 C-244.99255575 227.1167112 -265.61923242 199.17495245 -274.14624023 165.24023438 C-274.46334961 164.05042969 -274.78045898 162.860625 -275.10717773 161.63476562 C-279.68018281 141.0562428 -280.9510593 110.31139275 -271.14624023 91.24023438 C-267.69504041 87.73621006 -264.66467624 86.54903803 -259.89624023 85.55273438 C-258.83920898 85.32199219 -257.78217773 85.09125 -256.69311523 84.85351562 C-247.51416662 83.26640667 -238.45575797 82.99843708 -229.14624023 82.99023438 C-228.45682343 82.98955963 -227.76740662 82.98888489 -227.05709839 82.9881897 C-216.45893031 83.00464959 -206.44760047 83.53394482 -196.14624023 86.24023438 C-195.18137695 86.48966797 -195.18137695 86.48966797 -194.19702148 86.74414062 C-159.13058265 96.04466959 -130.00326147 117.93858294 -108.88842773 147.07617188 C-108.18314941 148.0486084 -107.47787109 149.02104492 -106.7512207 150.02294922 C-106.22157715 150.75465332 -105.69193359 151.48635742 -105.14624023 152.24023438 C-105.14037399 151.50124405 -105.13450775 150.76225372 -105.12846375 150.00086975 C-105.06999869 142.95692836 -104.99762766 135.91328892 -104.91052532 128.86965275 C-104.86623644 125.25044643 -104.826896 121.63134204 -104.79980469 118.01196289 C-104.56008991 86.95988635 -104.56008991 86.95988635 -101.14624023 73.24023438 C-100.93733154 72.38743896 -100.72842285 71.53464355 -100.51318359 70.65600586 C-99.29523703 66.11610619 -97.70469172 61.67295568 -96.14624023 57.24023438 C-95.77756836 56.180625 -95.40889648 55.12101562 -95.02905273 54.02929688 C-87.01794865 32.97943028 -70.75114604 18.80174545 -50.64624023 9.55273438 C-34.63010101 2.53244863 -17.34609336 0.05023606 0 0 Z M-56.14624023 37.24023438 C-56.97768555 37.89765625 -57.80913086 38.55507813 -58.66577148 39.23242188 C-64.91619557 44.49889614 -69.24541971 50.07872797 -73.14624023 57.24023438 C-73.60772461 58.08070312 -74.06920898 58.92117187 -74.54467773 59.78710938 C-78.96834955 68.634453 -82.67448649 80.26224956 -82.14624023 90.24023438 C-77.71650822 87.48333107 -74.13896119 84.4385249 -70.55639648 80.63476562 C-69.51466638 79.55802494 -68.47233033 78.48187023 -67.42944336 77.40625 C-65.81227879 75.72710437 -64.20029384 74.0438013 -62.59863281 72.34985352 C-61.03566276 70.70192128 -59.45413345 69.07375055 -57.86889648 67.44726562 C-57.39887711 66.94000443 -56.92885773 66.43274323 -56.44459534 65.91011047 C-52.89971097 62.31205653 -50.15459386 61.3902769 -45.14624023 61.24023438 C-41.95855406 62.3829898 -39.91009343 63.34353715 -37.70874023 65.92773438 C-36.79459563 69.68588442 -36.78994258 72.65200519 -38.14624023 76.24023438 C-39.85961914 78.48144531 -39.85961914 78.48144531 -42.06030273 80.84960938 C-42.87184814 81.72375488 -43.68339355 82.59790039 -44.51953125 83.49853516 C-48.8514825 88.02012755 -53.25991472 92.4588408 -57.70874023 96.86523438 C-58.62204102 97.77402344 -59.5353418 98.6828125 -60.47631836 99.61914062 C-62.69731994 101.82851393 -64.92064056 104.03549469 -67.14624023 106.24023438 C-56.38712227 109.37269147 -40.94075412 102.97171292 -31.14624023 98.24023438 C-27.5830187 96.14938029 -24.35582823 93.83495877 -21.14624023 91.24023438 C-20.57647461 90.82 -20.00670898 90.39976563 -19.41967773 89.96679688 C-5.23568278 79.12876996 0.55462266 59.59955503 2.83544922 42.69042969 C3.70735851 35.54061483 4.13383109 28.44429111 3.85375977 21.24023438 C-16.83389237 20.20007309 -39.53186072 24.03472015 -56.14624023 37.24023438 Z M-254.14624023 106.24023438 C-261.35977665 134.87553779 -255.29038784 166.33778598 -240.68798828 191.59716797 C-236.69130313 198.22903933 -232.14766448 204.33706297 -227.14624023 210.24023438 C-226.68878418 210.78276855 -226.23132813 211.32530273 -225.76000977 211.88427734 C-203.96701669 237.38798946 -173.54057114 253.07831268 -140.14624023 256.24023438 C-130.18406948 257.25073608 -130.18406948 257.25073608 -121.14624023 254.24023438 C-122.1919368 253.19786873 -122.1919368 253.19786873 -123.25875854 252.13444519 C-129.82415258 245.58931167 -136.38691306 239.04154776 -142.94709587 232.49119091 C-146.31993341 229.12357478 -149.69369606 225.75689638 -153.06958008 222.39233398 C-156.32667308 219.14609613 -159.58132635 215.89743069 -162.83429337 212.64705849 C-164.07658198 211.40661937 -165.31975126 210.16706161 -166.56380844 208.92839622 C-168.30439118 207.19505871 -170.0418332 205.45863087 -171.77856445 203.72143555 C-172.29501526 203.20858002 -172.81146606 202.69572449 -173.34356689 202.16732788 C-176.91470878 198.58582793 -179.43330652 196.05077306 -179.58374023 190.86523438 C-179.4851319 187.30953392 -179.17668574 186.28685405 -177.14624023 183.17773438 C-174.06486358 181.18767862 -171.91814176 180.37510648 -168.22058105 180.64378357 C-159.78718971 183.06869996 -152.13823198 194.12104282 -145.98999023 200.29882812 C-144.83579129 201.454896 -143.68136851 202.61074044 -142.5267334 203.76637268 C-139.51282616 206.78406768 -136.50193621 209.80475525 -133.49169922 212.82611084 C-130.40963949 215.91846584 -127.32468791 219.00793305 -124.23999023 222.09765625 C-118.20593219 228.14238549 -112.1750638 234.19028444 -106.14624023 240.24023438 C-99.70527037 228.32948841 -105.26448513 207.39295554 -108.73803711 195.00708008 C-114.4076443 176.40658601 -123.85400724 160.56609865 -137.13842773 146.42382812 C-139.14624023 144.24023438 -139.14624023 144.24023438 -141.19702148 141.65820312 C-151.50830382 128.86725369 -167.36469237 119.82622651 -182.14624023 113.24023438 C-183.20069336 112.758125 -184.25514648 112.27601562 -185.34155273 111.77929688 C-206.25284147 102.95483999 -232.13552358 100.74545909 -254.14624023 106.24023438 Z M-115.14624023 359.24023438 C-116.63704102 359.75070312 -116.63704102 359.75070312 -118.15795898 360.27148438 C-125.71884738 363.13707076 -131.86140455 367.19708355 -138.14624023 372.24023438 C-139.64477539 373.40039062 -139.64477539 373.40039062 -141.17358398 374.58398438 C-144.27571905 377.35593161 -146.56567995 380.29214272 -148.83374023 383.74023438 C-149.21079102 384.29582031 -149.5878418 384.85140625 -149.97631836 385.42382812 C-151.65342238 387.91167877 -153.24458002 390.41311815 -154.72827148 393.02148438 C-156.14624023 395.24023438 -156.14624023 395.24023438 -159.14624023 397.24023438 C-162.11694739 397.37711187 -164.99194343 397.3994774 -167.95874023 397.33007812 C-169.77644531 397.30960427 -171.5941538 397.28943269 -173.41186523 397.26953125 C-176.25250429 397.22663081 -179.09291852 397.17876662 -181.93334961 397.1237793 C-224.27047727 396.36347879 -261.49834728 411.0542522 -292.15795898 440.32617188 C-306.55895747 454.30481373 -318.03674958 471.39080139 -325.14624023 490.24023438 C-325.14624023 490.90023437 -325.14624023 491.56023437 -325.14624023 492.24023438 C-314.58624023 492.24023438 -304.02624023 492.24023438 -293.14624023 492.24023438 C-291.97061523 489.84773437 -290.79499023 487.45523438 -289.58374023 484.99023438 C-276.89517716 459.63368567 -259.78317029 439.97279317 -233.61108398 427.98242188 C-229.44639744 426.72839582 -226.2462232 426.70246492 -222.33374023 428.61523438 C-220.14624023 430.24023438 -220.14624023 430.24023438 -219.14624023 432.24023438 C-218.87280273 434.22851562 -218.87280273 434.22851562 -218.77124023 436.55273438 C-218.72225586 437.31199219 -218.67327148 438.07125 -218.62280273 438.85351562 C-219.41919037 442.48480552 -221.32751834 443.88688536 -224.14624023 446.24023438 C-226.45046307 447.51730663 -228.71124567 448.67747469 -231.08374023 449.80273438 C-249.57475822 459.17255082 -260.94339122 473.83453634 -270.14624023 492.24023438 C-135.83624023 492.24023438 -1.52624023 492.24023438 136.85375977 492.24023438 C125.1421738 457.10547647 97.66118016 428.75311395 64.85375977 412.24023438 C55.53419441 407.74548348 46.04231747 404.03496938 36.04125977 401.36523438 C35.32623291 401.17421143 34.61120605 400.98318848 33.87451172 400.78637695 C18.65207969 397.00179441 3.97019473 397.07688291 -11.59375 397.50756836 C-14.38345851 397.58002524 -17.17227372 397.62123171 -19.96264648 397.65820312 C-20.81162003 397.69028366 -21.66059357 397.7223642 -22.53529358 397.75541687 C-26.89785497 397.79289872 -28.57795023 397.69279373 -32.10498047 394.8840332 C-34.1418647 392.24590148 -35.94108264 389.60361223 -37.64624023 386.74023438 C-40.17101245 382.68546102 -42.54528814 379.42247111 -46.14624023 376.24023438 C-46.81913086 375.56476563 -47.49202148 374.88929688 -48.18530273 374.19335938 C-57.16279817 365.47904784 -67.96784192 360.07242003 -80.14624023 357.24023438 C-81.25612305 356.96566406 -81.25612305 356.96566406 -82.38842773 356.68554688 C-93.23746776 354.93371888 -104.78616728 355.64681047 -115.14624023 359.24023438 Z " transform="translate(350.146240234375,-0.240234375)"/>
  <path d="M0 0 C2.96922861 1.79349379 5.42452071 3.84904142 7 7 C7.2262475 12.0069555 6.69507747 15.16929766 3.4375 19.0625 C-0.65569026 21.36957087 -3.41764961 22.12053499 -8 21 C-10.79268315 19.63080114 -11.85776315 18.45573492 -14 16 C-15.26372224 11.91148688 -15.2741007 9.79184647 -13.875 5.75 C-10.23361761 0.40930583 -6.37425175 -0.89463182 0 0 Z " transform="translate(406,105)"/>
  <path d="M0 0 C2.46810594 2.1516821 3.74159986 3.68402403 4.37890625 6.9296875 C4.60432912 10.78369142 4.24527155 12.61574124 2.125 15.9375 C-1.3839575 19.34325286 -4.01818439 19.33097275 -8.73828125 19.29296875 C-12.0542278 18.86344199 -13.74987627 17.39075646 -16 15 C-17.60553944 11.78892113 -17.47469056 8.48329272 -17 5 C-15.09654278 1.63234491 -13.62149958 0.31765534 -10.1875 -1.4375 C-6.11049661 -2.15697119 -3.80013242 -1.61857492 0 0 Z " transform="translate(169,419)"/>
  <script xmlns=""/>
</svg>