<svg xmlns="http://www.w3.org/2000/svg" fill="white" width="512" height="512">
  <path d="M0 0 C0.77327637 0.17160645 1.54655273 0.34321289 2.34326172 0.52001953 C20.02551187 4.54083602 36.75500287 11.01105522 53 19 C53.53625 17.824375 54.0725 16.64875 54.625 15.4375 C58.95336415 6.87157655 65.04330834 1.1268587 74.12890625 -2.1171875 C78.82972131 -3.18922 83.1965799 -3.33042321 88 -3.3125 C88.86367188 -3.32861328 89.72734375 -3.34472656 90.6171875 -3.36132812 C96.96589415 -3.36615237 102.17712157 -2.77669637 106.91015625 1.87890625 C110.01691348 7.92539076 108.11972441 15.39801286 106.375 21.625 C103.46653609 30.24798104 99.30972126 36.59716255 92 42 C90.66609316 42.99923487 89.33264668 43.99908511 88 45 C88.46897705 45.46374023 88.9379541 45.92748047 89.42114258 46.40527344 C91.55424382 48.51752661 93.68339959 50.63371446 95.8125 52.75 C96.91948242 53.84441406 96.91948242 53.84441406 98.04882812 54.9609375 C99.11713867 56.02441406 99.11713867 56.02441406 100.20703125 57.109375 C100.8616333 57.75874023 101.51623535 58.40810547 102.19067383 59.07714844 C103.96042799 60.95794506 105.49374931 62.90470134 107 65 C109.44498137 63.78362177 111.88031323 62.55050044 114.3125 61.30859375 C115.54161931 60.68480251 116.77078717 60.06110693 118 59.4375 C118.61617188 59.12103516 119.23234375 58.80457031 119.8671875 58.47851562 C128.0729019 54.33163635 136.19333095 53.71733528 145.125 56.1875 C154.42217876 59.37928736 166.41891624 65.83783247 171 75 C171.73620866 79.03241564 171.87937811 82.54151923 169.71875 86.125 C167.91581643 88.22295906 166.02210939 90.11295517 164 92 C163.07960938 92.93005859 163.07960938 92.93005859 162.140625 93.87890625 C155.16736026 100.54961198 146.01921472 105.20616492 136.25 105.0625 C135.45078125 105.05347656 134.6515625 105.04445313 133.828125 105.03515625 C133.22484375 105.02355469 132.6215625 105.01195313 132 105 C132.94994841 109.27102788 134.26921794 112.55471224 137 116 C140.37683213 117.48432182 143.50234763 118.37587627 147.06860352 119.22412109 C159.75576493 122.25095952 170.92764558 128.79463962 181 137 C181.82757813 137.66386719 182.65515625 138.32773438 183.5078125 139.01171875 C202.02390253 154.71266656 215.82399794 178.60509253 218 203 C219.98202613 236.00154075 212.48365369 262.24463105 190.4375 287.25 C188.00690243 289.97940498 185.87916781 292.08330667 182.85546875 294.16796875 C178.72873245 297.54124077 178.56563885 302.03082956 177.875 307.0625 C177.56165491 308.9618808 177.24267586 310.86034106 176.91796875 312.7578125 C176.76505371 313.66692383 176.61213867 314.57603516 176.45458984 315.51269531 C173.7965753 330.05611756 166.18318492 343.60732698 157 355 C156.33484375 355.83015625 155.6696875 356.6603125 154.984375 357.515625 C139.27926658 376.01275269 117.00681554 387.83105357 93 391 C62.21683842 393.18193901 37.1249928 386.29999424 13 367 C12.67 398.02 12.34 429.04 12 461 C14.97 461.99 17.94 462.98 21 464 C29.23367256 468.5096447 36.25420925 474.52930355 43 481 C43.64453125 481.60457031 44.2890625 482.20914062 44.953125 482.83203125 C46.34987251 484.17330047 47.68365775 485.579736 49 487 C49 487.66 49 488.32 49 489 C50.09465576 488.97381592 51.18931152 488.94763184 52.31713867 488.9206543 C56.38903258 488.82996781 60.46083776 488.77268451 64.53344727 488.7253418 C66.29401676 488.70023939 68.05448247 488.66614972 69.81469727 488.62280273 C72.34938179 488.56195885 74.88268575 488.53374887 77.41796875 488.51171875 C78.20149216 488.48591232 78.98501556 488.4601059 79.7922821 488.43351746 C84.03368077 488.43135402 85.5443277 488.63875331 88.99487305 491.37426758 C91.16966201 494.22217399 91.68019497 495.46752199 91.625 499 C91.63789063 499.825 91.65078125 500.65 91.6640625 501.5 C90.93794157 504.23363175 89.97568467 505.97850588 87.91590595 507.93249393 C83.35979989 510.4710689 77.54838224 509.6780527 72.48669434 509.63491821 C71.07937534 509.64067958 69.67206386 509.64862081 68.26476812 509.65855443 C64.39757675 509.67944952 60.53100138 509.66910094 56.66380763 509.65362334 C52.49330239 509.64232448 48.32290413 509.65976523 44.15242004 509.67352295 C35.98247513 509.69577562 27.81275966 509.69094518 19.6428057 509.67645974 C13.00393197 509.66517546 6.36512263 509.66363308 -0.27375793 509.66907883 C-1.21803505 509.66984499 -2.16231217 509.67061116 -3.13520375 509.67140054 C-5.05338444 509.67299914 -6.97156512 509.6746202 -8.88974577 509.6762635 C-26.88361869 509.69052694 -44.87736432 509.67411894 -62.87121636 509.64726166 C-78.31638898 509.62492234 -93.76137373 509.62880231 -109.20654297 509.65185547 C-127.13528396 509.67860297 -145.06391334 509.68915359 -162.99267149 509.67379415 C-164.90386166 509.67220138 -166.81505186 509.67062952 -168.72624207 509.66907883 C-170.13681672 509.66792176 -170.13681672 509.66792176 -171.57588783 509.66674132 C-178.20807454 509.66242117 -184.84019057 509.66971766 -191.47236633 509.68147659 C-199.55298712 509.69548848 -207.63336501 509.69172937 -215.71395791 509.66507287 C-219.83819076 509.65191689 -223.96201839 509.6468123 -228.0862484 509.66331863 C-231.86022388 509.6781949 -235.63341776 509.67006958 -239.40732211 509.64343087 C-241.42250608 509.63518099 -243.43774411 509.65154459 -245.4528718 509.66871703 C-255.19779367 509.5623636 -255.19779367 509.5623636 -258.3030777 506.61656761 C-260.13170042 503.79692468 -260.6771002 502.33441262 -260.625 499 C-260.63789063 498.175 -260.65078125 497.35 -260.6640625 496.5 C-259.68135217 492.80038463 -257.97275452 491.3811737 -255 489 C-252.02539012 488.493448 -249.60715396 488.27763142 -246.63671875 488.29296875 C-245.84473587 488.27784744 -245.05275299 488.26272614 -244.23677063 488.24714661 C-241.72005597 488.2043362 -239.20454218 488.19543868 -236.6875 488.1875 C-234.97587968 488.16435031 -233.26428781 488.13898397 -231.55273438 488.11132812 C-227.36838375 488.0485423 -223.18477996 488.01615501 -219 488 C-219.34571045 487.18378174 -219.6914209 486.36756348 -220.04760742 485.52661133 C-220.49982666 484.4517749 -220.9520459 483.37693848 -221.41796875 482.26953125 C-222.09122192 480.67395386 -222.09122192 480.67395386 -222.77807617 479.04614258 C-225.58420567 472.05072244 -227.53987336 465.13334428 -224.8125 457.8125 C-217.68563361 450.68563361 -207.4154305 450.58895319 -197.875 450.5 C-185.35856021 450.62712912 -176.22096954 453.19816544 -167 462 C-159.67519787 469.67922804 -155.73514284 478.58914296 -154 489 C-144.43 489 -134.86 489 -125 489 C-124.34 487.68 -123.68 486.36 -123 485 C-117.52788967 478.54888688 -111.36677622 473.22720826 -104.375 468.5 C-103.77856689 468.09120605 -103.18213379 467.68241211 -102.56762695 467.26123047 C-97.69194696 464.08862172 -93.83759855 462.94586618 -88 461 C-88.33 429.98 -88.66 398.96 -89 367 C-92.96 369.97 -96.92 372.94 -101 376 C-117.74740913 386.46504769 -135.49932178 391.41049741 -155.25 391.3125 C-156.44077148 391.30686035 -157.63154297 391.3012207 -158.85839844 391.29541016 C-186.3471886 390.91664238 -208.95352804 379.37002466 -228.4609375 360.63671875 C-242.15436141 346.34270607 -252.91358747 325.85004534 -254.19921875 305.91015625 C-254.72678436 299.19018124 -256.53900685 295.76107873 -261.625 291.375 C-262.71096877 290.46437078 -263.79950625 289.55679586 -264.890625 288.65234375 C-272.28177694 282.52216712 -277.40879691 274.33172004 -282 266 C-282.50402344 265.12085938 -283.00804687 264.24171875 -283.52734375 263.3359375 C-294.9722181 242.19349786 -298.06898783 213.94477784 -291.90869141 190.75976562 C-289.65476207 183.21507364 -286.50838559 176.03586963 -283 169 C-282.48824219 167.96359375 -281.97648437 166.9271875 -281.44921875 165.859375 C-272.47766651 149.20746165 -258.59216931 137.23015634 -243 127 C-243.44730469 126.61070312 -243.89460938 126.22140625 -244.35546875 125.8203125 C-252.70403732 118.09477144 -256.77520334 108.33710736 -257.37109375 97.01953125 C-257.40383921 95.28402192 -257.42585048 93.54827913 -257.4375 91.8125 C-257.47037109 90.93658203 -257.50324219 90.06066406 -257.53710938 89.15820312 C-257.57523265 84.58687534 -257.51021154 82.64792718 -254.59765625 78.94921875 C-248.31269509 74.23313511 -239.75732451 75.59413036 -232.20703125 76.23828125 C-223.2009128 77.69277673 -213.86119543 81.89552069 -208 89 C-207.12425387 90.05254615 -206.24793615 91.10461694 -205.37109375 92.15625 C-204.58863281 93.0946875 -203.80617188 94.033125 -203 95 C-202.443125 94.04480469 -201.88625 93.08960937 -201.3125 92.10546875 C-196.59644309 84.08567233 -191.70290101 76.36854521 -186 69 C-185.30261719 68.09765625 -184.60523438 67.1953125 -183.88671875 66.265625 C-170.26084408 49.13042204 -170.26084408 49.13042204 -164 46 C-156.91041162 45.4188862 -156.91041162 45.4188862 -153.0625 47.875 C-149.82741654 51.20811629 -149.35471504 53.8903642 -149.3984375 58.4375 C-150.65225104 63.77842003 -155.20579906 67.27111394 -159 71 C-174.16600525 87.01343136 -184.90233594 105.74395205 -192.95727539 126.18383789 C-193.46955688 127.45215454 -193.46955688 127.45215454 -193.9921875 128.74609375 C-194.28464355 129.49560303 -194.57709961 130.2451123 -194.87841797 131.01733398 C-196.25138163 133.4443775 -197.6349693 134.54373138 -200 136 C-202.67744162 136.72041332 -205.28858778 137.33122202 -208 137.875 C-228.66633323 142.40297975 -246.82542107 153.42936227 -259 171 C-270.99736191 190.04647855 -275.52990062 212.33202628 -270.97460938 234.58764648 C-266.52906095 252.50018804 -256.2602262 268.41032525 -242 280 C-240.66271554 281.09937805 -239.32903464 282.20316293 -238 283.3125 C-237.1646875 283.98732422 -237.1646875 283.98732422 -236.3125 284.67578125 C-233.45724513 287.55652947 -233.75855442 291.42768576 -233.45629883 295.25732422 C-231.63333508 317.28390393 -222.71368371 336.77289447 -206.1171875 351.5703125 C-187.43228327 366.26910383 -167.27866815 370.92688849 -144 369 C-121.71653802 366.19673036 -103.93217428 352.80369112 -90 336 C-88.38830109 332.77660218 -88.48297614 329.35062768 -88.3125 325.8125 C-88.19358398 324.6977832 -88.19358398 324.6977832 -88.07226562 323.56054688 C-87.93726454 319.97830878 -88.38634218 317.82314058 -90.54980469 314.92114258 C-98.75939842 307.79458231 -109.40445882 308.99699521 -119.625 309.0625 C-121.50653502 309.04937301 -123.38805099 309.03312419 -125.26953125 309.01367188 C-129.84692728 308.97307944 -134.42251224 308.97486994 -139 309 C-139.14550293 310.26384521 -139.29100586 311.52769043 -139.44091797 312.82983398 C-140.33017968 320.55400256 -144.26800205 327.32479094 -150.01171875 332.52734375 C-158.15986686 338.56241612 -167.13196792 339.05186716 -177 338 C-184.6235602 336.1218926 -191.39715644 331.13354808 -195.57421875 324.5 C-199.92395659 316.12457355 -201.28163766 308.21600659 -198.875 299 C-196.01369455 290.22712951 -190.17425405 284.08305639 -182.125 279.75 C-175.03049384 276.76034188 -166.63386735 276.7708749 -159.24609375 278.73046875 C-155.62381269 280.23209118 -153.3301269 281.64478169 -150.6262207 284.55419922 C-146.03267298 288.37678007 -140.64352943 287.61182463 -134.953125 287.49609375 C-132.55729157 287.49792448 -130.16145823 287.49988157 -127.765625 287.50195312 C-124.00897464 287.47473457 -120.25259828 287.43752957 -116.49609375 287.39477539 C-112.85639038 287.36200466 -109.21794111 287.36534575 -105.578125 287.37109375 C-104.4673761 287.34631454 -103.3566272 287.32153534 -102.21221924 287.29600525 C-94.259526 287.32170804 -89.3877271 289.33827808 -83 294 C-81.93007812 294.72445313 -80.86015625 295.44890625 -79.7578125 296.1953125 C-78.88898438 296.83210938 -78.02015625 297.46890625 -77.125 298.125 C-75.79855469 299.08792969 -75.79855469 299.08792969 -74.4453125 300.0703125 C-68.15880514 305.03123045 -68.15880514 305.03123045 -67.49663544 309.07070827 C-67.49512733 310.28466809 -67.49361923 311.49862791 -67.49206543 312.74937439 C-67.48582547 313.42713395 -67.4795855 314.10489351 -67.47315645 314.80319124 C-67.45720579 317.07349411 -67.46983773 319.34272635 -67.48242188 321.61303711 C-67.47700158 323.24096808 -67.46987944 324.86889415 -67.46118164 326.49681091 C-67.44293271 330.91837849 -67.45002258 335.33957309 -67.46269798 339.76114726 C-67.47281928 344.387289 -67.46343457 349.01339864 -67.45715332 353.63954163 C-67.44987364 361.4097365 -67.45947224 369.17977937 -67.47851562 376.94995117 C-67.50027735 385.93299995 -67.49323942 394.9156855 -67.47121 403.89872545 C-67.45305598 411.61010469 -67.45049792 419.3213746 -67.46096468 427.03276831 C-67.46720059 431.63893528 -67.46803274 436.24493156 -67.45481873 440.85108757 C-67.44326106 445.18256306 -67.45128423 449.51357055 -67.47439575 453.8449955 C-67.47968365 455.43448484 -67.47816764 457.02401359 -67.46934509 458.61348724 C-67.45840819 460.78406994 -67.47212819 462.95315466 -67.49206543 465.12364197 C-67.49357353 466.33797881 -67.49508163 467.55231565 -67.49663544 468.80345058 C-68.09742874 472.61870822 -69.33433515 474.25982498 -72 477 C-73.95117187 478.25439453 -73.95117187 478.25439453 -75.96875 479.1328125 C-77.07283203 479.62974609 -77.07283203 479.62974609 -78.19921875 480.13671875 C-78.95847656 480.46285156 -79.71773437 480.78898437 -80.5 481.125 C-82.01230113 481.79000169 -83.52278485 482.45915468 -85.03125 483.1328125 C-85.69705078 483.42043457 -86.36285156 483.70805664 -87.04882812 484.00439453 C-89.45021765 485.15970811 -89.45021765 485.15970811 -93 488 C-56.7 488 -20.4 488 17 488 C10.47840205 484.08704123 4.36264837 480.61100568 -2.43359375 477.39453125 C-4.92085249 476.04300709 -6.30353703 475.23148003 -8 473 C-8.38031673 470.27098274 -8.38031673 470.27098274 -8.38768005 466.90237427 C-8.402537 464.98859985 -8.402537 464.98859985 -8.41769409 463.03616333 C-8.41345578 461.61932277 -8.4088979 460.20248314 -8.40405273 458.78564453 C-8.40975405 457.29579149 -8.41671738 455.80594282 -8.42485046 454.31610107 C-8.4428255 450.26642263 -8.44160516 446.21696036 -8.43590808 442.16725397 C-8.43282186 438.78751238 -8.43890248 435.40781265 -8.44494683 432.02807701 C-8.45900529 424.05432726 -8.45742038 416.08068461 -8.44604492 408.10693359 C-8.43456757 399.87996422 -8.44862978 391.65332097 -8.4754414 383.42639458 C-8.49759407 376.3647199 -8.50423661 369.30314762 -8.49836498 362.24144065 C-8.49499251 358.02312597 -8.49742933 353.80502026 -8.51461601 349.58673477 C-8.53007585 345.61888168 -8.52614069 341.65151161 -8.50731087 337.68367767 C-8.50362198 336.22802447 -8.50674226 334.77233557 -8.51719666 333.31671524 C-8.53038576 331.32837776 -8.51646381 329.33991569 -8.50120544 327.35159302 C-8.50099616 326.23919817 -8.50078688 325.12680332 -8.50057125 323.98069954 C-7.88473934 320.31366932 -6.55927222 318.64710138 -4 316 C-1.01756445 314.50878222 2.02615752 314.86998528 5.29541016 314.88647461 C6.42238564 314.88625557 6.42238564 314.88625557 7.5721283 314.8860321 C10.0611355 314.88673004 12.55006833 314.89451686 15.0390625 314.90234375 C16.76256265 314.90420835 18.48606334 314.90563206 20.20956421 314.90663147 C24.75025897 314.91045331 29.29092185 314.92028078 33.831604 314.93133545 C38.46325245 314.94155671 43.09490603 314.94613063 47.7265625 314.95117188 C56.81772461 314.96190333 65.90885467 314.97949745 75 315 C72.36 309.72 69.72 304.44 67 299 C55.39404892 298.86315754 43.88842026 299.4730396 32.30639648 300.14550781 C27.36080142 300.4299654 22.41530544 300.68758369 17.46588135 300.89599609 C15.79698177 300.96638556 14.12831128 301.04239368 12.4598999 301.12353516 C9.99805916 301.23507295 7.53768073 301.31008356 5.07421875 301.375 C4.33412064 301.41310791 3.59402252 301.45121582 2.83149719 301.49047852 C-1.21752782 301.55395898 -2.78876241 301.17668865 -5.94213867 298.5390625 C-6.62123291 297.70117188 -7.30032715 296.86328125 -8 296 C-8.33 295.67 -8.66 295.34 -9 295 C-9.38933267 290.60721507 -9.48561824 286.20926521 -9.56982422 281.80200195 C-9.60622497 280.32455012 -9.66053506 278.84741664 -9.73388672 277.37133789 C-10.4084384 263.58033089 -10.4084384 263.58033089 -5.33203125 257.84375 C-3.57859605 256.20323326 -1.79827242 254.59124054 0 253 C1.67145969 251.33741321 3.31319499 249.64826399 4.95599365 247.9573822 C7.31535593 245.53606179 9.71004786 243.15120012 12.10473633 240.76489258 C13.96229592 238.91277675 15.8143423 237.05526446 17.66601562 235.19726562 C18.84863715 234.01530355 20.03156811 232.83365098 21.21484375 231.65234375 C21.76687973 231.09828354 22.31891571 230.54422333 22.88768005 229.97337341 C26.43544333 226.44747951 28.32025016 224.84314873 33.3125 224.625 C36.89944824 224.68276084 37.88749122 224.92499415 41 227 C43.37730557 230.56595835 44.69395777 233.68810512 44 238 C41.15732168 242.79313535 37.78625757 246.38075625 33.73828125 250.17578125 C32.52451209 251.34479164 31.31164831 252.51474267 30.09960938 253.68554688 C28.20573721 255.50522662 26.30671767 257.31792521 24.39135742 259.11499023 C22.53000865 260.86686196 20.69552606 262.64355621 18.86328125 264.42578125 C18.29039871 264.9510994 17.71751617 265.47641754 17.12727356 266.01765442 C12.80005278 270.28697131 12.04363306 273.99177448 12 280 C12.99 279.67 13.98 279.34 15 279 C17.57969197 278.77667626 20.14211493 278.60037903 22.7265625 278.46484375 C23.88507973 278.39990219 23.88507973 278.39990219 25.06700134 278.33364868 C27.58604558 278.19528651 30.10538166 278.06496518 32.625 277.9375 C33.478591 277.89430634 34.33218201 277.85111267 35.2116394 277.80661011 C41.14004165 277.51182383 47.06934514 277.24514826 53 277 C53.7090448 276.97039185 54.4180896 276.94078369 55.14862061 276.91027832 C59.28637418 276.74325619 63.42206626 276.63358176 67.5625 276.5625 C69.06514404 276.51113892 69.06514404 276.51113892 70.59814453 276.45874023 C71.5157959 276.45302002 72.43344727 276.4472998 73.37890625 276.44140625 C74.1582251 276.42795166 74.93754395 276.41449707 75.74047852 276.40063477 C79.81526212 277.4815201 81.99976659 280.42579139 84.20524597 283.89686584 C85.48034375 286.1399488 86.68157793 288.40947434 87.86328125 290.703125 C88.30012741 291.54035095 88.73697357 292.3775769 89.1870575 293.24017334 C90.10376873 295.00598648 91.01536683 296.77446245 91.92211914 298.54541016 C93.3062655 301.23787256 94.71945338 303.91366167 96.13476562 306.58984375 C97.02525887 308.31416477 97.91398996 310.0393972 98.80078125 311.765625 C99.22257156 312.55656555 99.64436188 313.3475061 100.07893372 314.16241455 C102.6925941 319.35870634 104.14473619 324.15791076 103 330 C100.81840855 332.75569447 99.12822506 334.43588747 96 336 C93.4682761 336.12221229 90.96221479 336.18564445 88.42919922 336.20532227 C87.64862152 336.21522186 86.86804382 336.22512146 86.06381226 336.23532104 C83.47746845 336.26696978 80.89110625 336.29170676 78.3046875 336.31640625 C76.51392126 336.33697287 74.72315992 336.35796926 72.93240356 336.37937927 C68.21421257 336.43463013 63.49597755 336.4840261 58.77770996 336.53222656 C53.96504793 336.5824196 49.15245 336.63811712 44.33984375 336.69335938 C34.8932839 336.80097781 25.44666844 336.90241459 16 337 C17.27339436 338.61226944 18.54966359 340.22226856 19.82714844 341.83129883 C20.89277008 343.1765136 20.89277008 343.1765136 21.97991943 344.54890442 C32.92843903 357.83345774 50.95727009 366.96228229 68 369 C91.54282619 370.38001293 111.6452114 366.6903838 130 351 C130.5775 350.5771875 131.155 350.154375 131.75 349.71875 C146.63268885 338.41893069 154.06783754 318.81418817 157 301 C157.3188735 297.82859508 157.55153863 294.70135063 157.62890625 291.515625 C158.55647474 285.227687 162.963679 282.15517867 167.625 278.4375 C182.60429476 265.96566754 193.63694793 247.58953753 196 228 C197.98365656 203.63379006 192.49687602 181.91938506 176.68359375 162.96484375 C163.45076629 148.34516974 145.80906924 139.16685602 126.21875 136.78515625 C121.88069725 135.25003547 119.7684244 132.51476937 117.75097656 128.5378418 C116.40707134 125.48225589 115.13520064 122.40351901 113.875 119.3125 C96.73151525 79.01746285 65.68123134 47.37981648 25.02539062 30.69775391 C4.66005959 22.61739668 -15.4534158 18.76739317 -37.375 18.75 C-38.13732941 18.74932526 -38.89965881 18.74865051 -39.68508911 18.74795532 C-52.95252942 18.76662097 -65.17132981 19.8439683 -77.9765625 23.34765625 C-78.82484619 23.57880127 -79.67312988 23.80994629 -80.54711914 24.0480957 C-82.16159435 24.49860684 -83.77092789 24.96822544 -85.37280273 25.46166992 C-90.77012227 27.03295147 -95.48927392 27.30735369 -101 26 C-103.69207751 24.31745156 -104.65216939 23.16267853 -105.55859375 20.1328125 C-106.20356259 16.60875596 -106.22407414 14.53070191 -104.8125 11.1875 C-101.76274177 7.50675731 -98.85138745 5.71374933 -94.24609375 4.5 C-93.32038574 4.2539502 -92.39467773 4.00790039 -91.44091797 3.75439453 C-86.30245348 2.46372185 -81.15997715 1.20207433 -76 0 C-74.84153564 -0.2798877 -74.84153564 -0.2798877 -73.65966797 -0.56542969 C-50.80070459 -5.88838607 -22.79778792 -5.22651143 0 0 Z M77 20 C74.57714527 22.63446711 74.57714527 22.63446711 74 26 C78.82034262 25.58682778 80.90992611 23.61980085 84 20 C84 19.34 84 18.68 84 18 C80.80366562 18 79.65903784 18.33810135 77 20 Z M126 79 C126.67736927 82.09357688 126.67736927 82.09357688 129 83.25 C133.16803088 84.29200772 136.84872798 84.1075222 141 83 C143.54906626 81.12567495 143.54906626 81.12567495 145 79 C137.72956417 75.5101908 133.31686573 74.81893387 126 79 Z M-236 98 C-234.41100801 104.39778354 -232.84031675 108.36357637 -227 112 C-224.32355108 112.91626179 -221.7933344 113.47022968 -219 114 C-220.39925037 108.00321269 -222.13522293 103.90415629 -227.08203125 100.0859375 C-230.07927731 98.38892242 -232.57902476 98.13963164 -236 98 Z M-175.875 301.125 C-178.26814883 304.3627896 -179.08209148 305.97751725 -179 310 C-176.75278859 314.2420814 -176.75278859 314.2420814 -173 317 C-168.81855989 317.39447548 -166.69053952 317.45035186 -163.125 315.125 C-160.61333682 312.61333682 -160.07846204 311.70615837 -159.6875 308.1875 C-160.07164358 304.2692355 -161.29256317 302.78706733 -164 300 C-168.37314816 297.81342592 -172.02487827 298.27925785 -175.875 301.125 Z M-202 472 C-200.68073991 477.86337819 -197.42748153 482.06051744 -193 486 C-189.15642767 488.01819684 -185.99181377 488.2196003 -181.6875 488.125 C-180.61886719 488.10695313 -179.55023438 488.08890625 -178.44921875 488.0703125 C-177.23685547 488.03550781 -177.23685547 488.03550781 -176 488 C-179.53215932 479.84844204 -179.53215932 479.84844204 -186 474 C-186.58136719 473.64164062 -187.16273438 473.28328125 -187.76171875 472.9140625 C-190.69216466 471.7173359 -193.09645767 471.80644473 -196.25 471.875 C-197.86648437 471.90207031 -197.86648437 471.90207031 -199.515625 471.9296875 C-200.33546875 471.95289063 -201.1553125 471.97609375 -202 472 Z" transform="translate(294,3)"/>
  <path d="M0 0 C3.43560531 2.76342167 5.22199887 4.69296143 6 9 C6.0954595 10.36020322 6.14559347 11.7240951 6.15821838 13.08758545 C6.1680072 13.89242874 6.17779602 14.69727203 6.18788147 15.52650452 C6.19651466 16.8374131 6.19651466 16.8374131 6.20532227 18.17480469 C6.21522186 19.101978 6.22512146 20.02915131 6.23532104 20.98442078 C6.2668905 24.0468796 6.29167554 27.10935394 6.31640625 30.171875 C6.3369797 32.29608563 6.35797628 34.4202922 6.37937927 36.54449463 C6.43455949 42.13397941 6.48398667 47.7235009 6.53222656 53.31304932 C6.58247112 59.0173265 6.63814177 64.72155042 6.69335938 70.42578125 C6.80089143 81.617142 6.90234744 92.808549 7 104 C10.91717945 100.35521729 14.79639737 96.67533874 18.64550781 92.95874023 C19.95902684 91.70046417 21.28225904 90.45224562 22.61523438 89.21459961 C24.53312241 87.43053436 26.41284594 85.61287404 28.2890625 83.78515625 C28.88997711 83.24101578 29.49089172 82.69687531 30.11001587 82.13624573 C31.78318131 80.46565123 32.98522871 79.13897173 34 77 C33.90983656 74.52641874 33.43199201 72.50975136 32.67489624 70.15745544 C30.27669723 62.49108066 32.51212175 54.96546776 36 48 C41.32394494 40.06125678 47.88264895 35.35558505 57.25 33.5 C65.28943891 32.51024329 72.13093261 34.02896567 79.3125 37.6875 C86.81646875 44.14440334 91.97651668 50.87423876 93.4140625 60.8828125 C93.84193963 69.50791461 91.56027614 77.20399695 86.390625 84.16796875 C81.25897217 89.68802649 74.2303324 93.83467666 66.6015625 94.1328125 C65.28929687 94.13023437 63.97703125 94.12765625 62.625 94.125 C61.31789063 94.12757813 60.01078125 94.13015625 58.6640625 94.1328125 C55 94 55 94 52.57315063 93.23112488 C49.87431386 92.71058869 49.87431386 92.71058869 47.63461304 94.65058899 C46.81981476 95.48172714 46.00501648 96.3128653 45.16552734 97.16918945 C44.23461273 98.10378494 43.30369812 99.03838043 42.34457397 100.001297 C41.34145169 101.03838966 40.33857887 102.07572365 39.3359375 103.11328125 C38.29790879 104.16504436 37.25846901 105.21541652 36.21768188 106.26445007 C33.47986367 109.03085167 30.76009314 111.814334 28.04412842 114.60217285 C24.74398743 117.9837705 21.42484783 121.34669735 18.10665321 124.71056652 C15.52434842 127.32861795 12.94566637 129.94990232 10.37753296 132.5818634 C9.9037471 133.06559921 9.42996124 133.54933502 8.94181824 134.04772949 C7.66340372 135.35305995 6.3873248 136.66067669 5.11141968 137.96846008 C1.9856679 140.97595763 -0.07580799 142.30163495 -4.375 142.375 C-7.85589619 142.30696946 -8.93022866 142.04360709 -12 140.125 C-15.0253934 136.91051951 -15.12878324 135.1366682 -15.15390015 130.81987 C-15.16250061 129.72209229 -15.17110107 128.62431458 -15.17996216 127.49327087 C-15.18422211 126.2833699 -15.18848206 125.07346893 -15.19287109 123.8269043 C-15.20104858 122.55692596 -15.20922607 121.28694763 -15.21765137 119.97848511 C-15.24387418 115.76041792 -15.25917903 111.5423408 -15.2734375 107.32421875 C-15.27879703 105.87251084 -15.28417454 104.420803 -15.28956985 102.96909523 C-15.31119877 96.9307259 -15.32993577 90.89235926 -15.34119225 84.85396099 C-15.3574336 76.19823479 -15.39061508 67.54295734 -15.44759309 58.88740033 C-15.48628479 52.80240644 -15.50582397 46.71753261 -15.51111281 40.63241893 C-15.51476736 36.99747061 -15.52679828 33.36300088 -15.55921555 29.72818565 C-15.59486977 25.67227843 -15.59092741 21.61733639 -15.58349609 17.5612793 C-15.59990143 16.35745102 -15.61630676 15.15362274 -15.63320923 13.91331482 C-15.57208629 5.78485251 -15.57208629 5.78485251 -12.65103149 1.77742004 C-8.11924762 -1.26097596 -5.24764712 -1.26667344 0 0 Z M56 57 C53.61835808 59.84260487 53 61.28405267 53 65 C54.29241729 68.87725186 55.7143366 70.57146618 59 73 C63.09499984 73.65812497 65.19879854 73.41801815 68.875 71.5 C71.35354249 68.58406766 71.9570277 66.72834193 72.1953125 62.96484375 C71.86336519 59.62545383 70.47626586 58.15879588 68 56 C63.06459173 53.42500438 60.54767554 53.86715685 56 57 Z " transform="translate(281,112)"/>
  <path d="M0 0 C5.15835546 3.78556731 9.53835448 8.50018944 14.015625 13.046875 C15.8677947 14.86987667 17.7717518 16.56603666 19.75 18.25 C23.3451674 21.33561612 26.67337787 24.63197623 30 28 C33.24450984 31.28468953 36.47922436 34.50734071 40 37.5 C44.08559334 40.97275434 47.80241343 44.7750249 51.56713867 48.58666992 C54.97796215 52.02347651 58.49564743 55.2617137 62.1796875 58.40625 C70.22519084 65.45038168 70.22519084 65.45038168 72 69 C72.13548522 71.71288133 72.21268346 74.39885113 72.23828125 77.11328125 C72.246353 77.91984665 72.25442474 78.72641205 72.26274109 79.55741882 C72.27658143 81.26636607 72.28730382 82.97534096 72.29516602 84.68432617 C72.31236506 87.2920403 72.35624794 89.89848187 72.40039062 92.50585938 C72.41051897 94.16665735 72.41903463 95.8274661 72.42578125 97.48828125 C72.44328934 98.26553055 72.46079742 99.04277985 72.47883606 99.84358215 C72.46381587 103.61168467 72.15052176 105.76495107 70.09838867 108.96948242 C66.46529495 112.48506596 63.39719437 112.14827106 58.58447266 112.14526367 C57.8200737 112.14862228 57.05567474 112.1519809 56.26811218 112.15544128 C53.73341256 112.16496397 51.19877891 112.16689512 48.6640625 112.16796875 C46.90530367 112.17118065 45.14654512 112.17454467 43.38778687 112.17805481 C39.69732036 112.18404954 36.00687728 112.18589438 32.31640625 112.18530273 C27.58616357 112.18520115 22.85607111 112.19884833 18.12586403 112.21607494 C14.49190582 112.22719128 10.85798394 112.22922205 7.22401047 112.22869301 C5.48009092 112.22987387 3.73617045 112.23430159 1.99226761 112.24202538 C-0.44715652 112.25181694 -2.88625427 112.24895047 -5.32568359 112.24291992 C-6.04686874 112.24853943 -6.76805389 112.25415894 -7.51109314 112.25994873 C-11.15329613 112.23705562 -13.97303011 112.13600109 -17 110 C-19.29147823 106.60229091 -20 104.55333147 -20 100.4375 C-18.80815947 96.34054818 -17.28920817 94.66269233 -14 92 C-10.72112251 90.90704084 -8.32732427 90.87958618 -4.8762207 90.88647461 C-3.61513992 90.88655014 -2.35405914 90.88662567 -1.05476379 90.88670349 C0.32156412 90.89181011 1.69789163 90.89702611 3.07421875 90.90234375 C4.48240611 90.90420914 5.89059411 90.90563247 7.29878235 90.90663147 C11.0026733 90.91044712 14.70652495 90.92026928 18.41040039 90.93133545 C22.19091256 90.94157003 25.97143109 90.94613348 29.75195312 90.95117188 C37.16798665 90.9618924 44.58398782 90.9789574 52 91 C51.92611073 88.92530422 51.82758275 86.85147675 51.71875 84.77832031 C51.66654297 83.62342102 51.61433594 82.46852173 51.56054688 81.27862549 C50.61483923 75.7472037 47.20966579 73.14594743 43 69.75 C41.43800915 68.39283915 39.8768037 67.03477381 38.31640625 65.67578125 C37.56633301 65.04236816 36.81625977 64.40895508 36.04345703 63.75634766 C33.54127516 61.60572682 31.22904489 59.30987539 28.9375 56.9375 C26.43783514 54.39967231 23.89654183 52.00009669 21.1875 49.6875 C17.6110116 46.62499795 14.30610507 43.34719384 11 40 C7.75548719 36.71531368 4.5207759 33.49265951 1 30.5 C-2.64700532 27.39272063 -6.0454965 24.06751763 -9.4375 20.6875 C-10.23704102 19.89472656 -10.23704102 19.89472656 -11.05273438 19.0859375 C-15.94306898 14.17657435 -15.94306898 14.17657435 -16.1875 9.125 C-16.06376059 3.42267547 -16.06376059 3.42267547 -14 1 C-8.6801224 -2.12933976 -5.62817031 -2.56723558 0 0 Z " transform="translate(154,163)"/>
  <path d="M0 0 C2.76819584 2.02023749 4.69016124 3.61234118 5.45919991 7.05659485 C5.64509628 9.63663068 5.66402699 12.17314641 5.63110352 14.75976562 C5.63825882 15.73757492 5.64541412 16.71538422 5.65278625 17.7228241 C5.66967825 20.95110972 5.65026688 24.17800771 5.62890625 27.40625 C5.6297349 29.65157181 5.63219412 31.89689355 5.63621521 34.14221191 C5.63907357 38.84645868 5.62436764 43.55022942 5.59692383 48.25439453 C5.56284156 54.28390308 5.56885922 60.31256039 5.5875864 66.34210968 C5.59815571 70.97811983 5.58921908 75.61393196 5.57420158 80.24992371 C5.56901884 82.47307243 5.56950268 84.69624182 5.57574654 86.91938782 C5.5811977 90.02678891 5.56082565 93.13297206 5.53344727 96.24023438 C5.53997314 97.15882736 5.54649902 98.07742035 5.55322266 99.02384949 C5.49050847 103.21061069 5.3590418 105.42663553 3.09165955 109.04748535 C-0.21736872 112.13638487 -2.9073104 112.68553794 -7.35778809 112.55679321 C-10.68048962 111.85660045 -12.00288826 110.62778026 -14.46289062 108.30224609 C-15.77253784 107.07039581 -15.77253784 107.07039581 -17.10864258 105.81365967 C-18.07435441 104.87775639 -19.03806068 103.9397803 -20 103 C-20.50473846 102.50888985 -21.00947693 102.01777969 -21.5295105 101.51178741 C-25.58423292 97.5540798 -29.59105424 93.54926851 -33.59375 89.5390625 C-34.87489513 88.25859254 -36.15618854 86.97827093 -37.43762207 85.6980896 C-40.10164113 83.03553375 -42.76387083 80.37120547 -45.42480469 77.70556641 C-48.83543782 74.28919596 -52.25059654 70.87739008 -55.66707611 67.46686745 C-58.30423584 64.83331608 -60.93901578 62.19739423 -63.57307434 59.56074142 C-64.83224612 58.30090325 -66.09215929 57.04180561 -67.35282898 55.78346634 C-69.10678927 54.03204147 -70.85751964 52.27745079 -72.60742188 50.52197266 C-73.12686371 50.00455505 -73.64630554 49.48713745 -74.18148804 48.95404053 C-80.28701314 42.81237049 -80.28701314 42.81237049 -80.4375 37.625 C-80.36959555 33.834697 -80.11217318 33.14169244 -77.625 30 C-73.81770718 27.09920547 -71.48763808 26.47744042 -66.6242981 27.10446167 C-60.9044159 29.05636407 -56.93570887 34.10718513 -52.83984375 38.37890625 C-51.80071945 39.43297071 -50.75980029 40.4852685 -49.71717834 41.53587341 C-46.99151214 44.29193378 -44.29073733 47.07116165 -41.59460449 49.8560791 C-38.83368239 52.69916788 -36.04967557 55.51945335 -33.26757812 58.34179688 C-27.8223225 63.87258349 -22.40318431 69.42807231 -17 75 C-16.99413376 74.18869125 -16.98826752 73.37738251 -16.98222351 72.54148865 C-16.9241957 64.87635312 -16.85206175 57.21153891 -16.76428509 49.54669094 C-16.71965574 45.60658776 -16.68038362 41.66658621 -16.65356445 37.72631836 C-16.62745673 33.92005106 -16.58700256 30.1141764 -16.53681374 26.30815315 C-16.52019526 24.85983241 -16.50864982 23.41144384 -16.50238609 21.96304131 C-16.43407261 7.61200165 -16.43407261 7.61200165 -13 2 C-8.52732607 -1.25285376 -5.2750801 -1.53456876 0 0 Z " transform="translate(241,112)"/>
  <path d="M0 0 C2.5625 2.25 2.5625 2.25 5 5 C5.54398437 5.57878906 6.08796875 6.15757812 6.6484375 6.75390625 C13.9674319 15.17554392 19.1809137 27.78335032 19 39 C18.08774934 42.45352036 17.21692725 44.19315327 14.21484375 46.18359375 C2.13983837 52.16630967 -12.4081799 52.49801277 -25.203125 48.984375 C-29.26376751 47.55521032 -32.558688 45.55271031 -36 43 C-36.845625 42.443125 -37.69125 41.88625 -38.5625 41.3125 C-47.94713255 32.40913066 -54.59418455 18.092219 -55.1640625 5.05078125 C-54.89622655 1.70283188 -54.01691503 -0.33246722 -52 -3 C-37.96312369 -12.82581342 -13.04080091 -9.80997186 0 0 Z M-31 13 C-29.26613558 19.06852546 -27.06529914 24.01145533 -21.5 27.3125 C-16.3651127 29.78824923 -12.75660581 30.31981143 -7 30 C-6.34 29.34 -5.68 28.68 -5 28 C-9.17784188 19.98099214 -12.27614036 15.90795321 -21 13 C-22.72795352 12.93197033 -24.45835365 12.91504355 -26.1875 12.9375 C-27.08855469 12.94652344 -27.98960937 12.95554687 -28.91796875 12.96484375 C-29.94857422 12.98224609 -29.94857422 12.98224609 -31 13 Z " transform="translate(466,426)"/>
  <path d="M0 0 C6.13646012 5.590997 6.54457557 14.37233765 7.05078125 22.2890625 C7.28779466 34.73850373 5.74628589 46.16800318 -3.1875 55.5625 C-4.14269531 56.57763672 -4.14269531 56.57763672 -5.1171875 57.61328125 C-14.26540561 66.51017468 -26.54192038 71.37101951 -39.1875 72.5625 C-42.62622437 72.29933232 -43.32293971 71.80432979 -46.1875 69.5625 C-52.76350537 59.79243488 -53.42980336 45.77840543 -51.72265625 34.48828125 C-49.38976396 23.70728196 -44.42243597 14.81225762 -35.1875 8.5625 C-25.42899443 2.83830344 -11.24811119 -5.07267759 0 0 Z M-27.1875 29.5625 C-29.31832602 32.56454366 -29.31832602 32.56454366 -30.1875 35.5625 C-30.414375 36.18125 -30.64125 36.8 -30.875 37.4375 C-31.37187696 40.81626335 -31.24437324 44.15010557 -31.1875 47.5625 C-30.5275 47.8925 -29.8675 48.2225 -29.1875 48.5625 C-19.41530359 42.4986485 -19.41530359 42.4986485 -14.1875 32.5625 C-14.03331188 29.22175734 -14.07071194 25.90393602 -14.1875 22.5625 C-19.41794865 22.5625 -23.29083625 26.29666208 -27.1875 29.5625 Z " transform="translate(56.1875,393.4375)"/>
  <path d="M0 0 C7.81863973 4.49781963 12.80465164 10.27434727 15.84375 18.7890625 C17.74714489 26.65189616 17.21429726 34.31200773 13.5 41.5 C13.17128906 42.17804688 12.84257812 42.85609375 12.50390625 43.5546875 C8.57047968 50.76823796 2.14255479 54.81381434 -5.5 57.5 C-13.88870844 59.24823504 -22.16148382 58.66729439 -29.6875 54.375 C-37.68709009 48.81568891 -42.22203751 41.96439177 -44.5 32.5 C-45.69932282 24.29554164 -43.54581571 16.06160625 -38.875 9.25 C-29.3311617 -2.50724718 -13.79692613 -6.40260885 0 0 Z M-22.5 23.5 C-23.67126713 27.01380139 -23.79201915 28.71519854 -22.5 32.1875 C-19.80320012 35.30567487 -17.43620027 36.34628613 -13.5 37.5 C-10.07340593 36.86249413 -8.68475052 35.67016495 -6.125 33.3125 C-4.21779059 30.53611132 -4.21779059 30.53611132 -4.4375 27 C-5.71623001 22.78771289 -6.92557386 21.06426223 -10.5 18.5 C-16.38285279 17.44949057 -18.97951369 18.73698912 -22.5 23.5 Z " transform="translate(192.5,67.5)"/>
  <path d="M0 0 C8.64806171 4.94673785 13.50623067 11.43118148 16.1875 20.9375 C17.25000735 29.65006029 15.93145791 36.90724618 11.8125 44.6875 C5.44742807 52.4288037 -0.96206045 56.76196991 -10.875 58.3125 C-21.0673254 59.13700825 -28.53305961 55.6583687 -36.1875 49.25 C-42.55106505 41.68251724 -44.94745466 34.59337378 -44.83984375 24.80078125 C-44.00155614 16.65879243 -40.50379683 9.37238884 -34.40234375 3.8984375 C-24.34989809 -3.49124535 -11.39890709 -5.31756854 0 0 Z M-22.5 22.5 C-23.95147903 25.40295805 -23.87239025 27.27261779 -23.5 30.5 C-21.32256934 33.79725214 -19.71960102 35.96837904 -16.0625 37.5625 C-12.49436584 37.47547234 -10.4783509 36.44240276 -7.5 34.5 C-5.11835808 31.65739513 -4.5 30.21594733 -4.5 26.5 C-5.79241729 22.62274814 -7.2143366 20.92853382 -10.5 18.5 C-15.96739901 17.62131087 -18.61435798 18.61435798 -22.5 22.5 Z " transform="translate(433.5,228.5)"/>
  <path d="M0 0 C7.92908641 5.24970947 12.80750159 11.10305816 15.59765625 20.33203125 C17.20759336 28.51051175 15.7482868 35.93973847 11.98828125 43.31640625 C7.12829091 50.34162231 1.26806428 54.98462965 -7.01171875 57.31640625 C-18.31324202 58.38563727 -26.34983262 57.18533544 -35.26171875 50.19140625 C-40.90634892 44.9749117 -44.41940937 37.76371051 -45.25 30.125 C-45.52562802 21.31941001 -43.34335025 13.69902683 -37.63671875 6.87890625 C-28.05568178 -3.11070373 -12.65534451 -6.84008263 0 0 Z M-23.01171875 22.31640625 C-24.16060393 26.26569904 -24.44301271 28.34599484 -22.76171875 32.12890625 C-21.02480343 34.52666355 -21.02480343 34.52666355 -18.01171875 36.31640625 C-13.99136143 36.76311262 -11.71550064 36.69889641 -8.13671875 34.75390625 C-5.31593306 31.51829913 -4.93801015 29.59150528 -5.01171875 25.31640625 C-7.24151543 21.05842249 -7.24151543 21.05842249 -11.01171875 18.31640625 C-16.41856828 17.80632611 -19.36129603 18.12915666 -23.01171875 22.31640625 Z " transform="translate(317.01171875,36.68359375)"/>
  <path d="M0 0 C6.40287374 4.18649437 10.59494461 10.78483384 13 18 C13.97089006 28.60605212 13.37502886 37.00161856 7 46 C1.81376661 52.09999832 -5.57547793 55.66865799 -13.4375 56.875 C-22.76243553 57.50637584 -30.66251956 54.74072304 -38 49 C-40.38782869 46.52168517 -42.2349169 43.94763052 -44 41 C-44.61875 39.989375 -45.2375 38.97875 -45.875 37.9375 C-48.74258399 30.45087354 -48.04717829 20.74937913 -45.25 13.375 C-41.38496298 5.2704587 -35.46537842 0.1965758 -27.1328125 -3.15234375 C-17.85752337 -5.66199181 -8.35894868 -4.69029898 0 0 Z M-26 22 C-26.69847125 24.8396864 -26.69847125 27.1603136 -26 30 C-24.01078114 32.9838283 -22.61497432 34.60276841 -19.0625 35.4765625 C-15.13936508 35.75890933 -13.32887629 35.21925086 -10 33 C-7.78074914 29.67112371 -7.24109067 27.86063492 -7.5234375 23.9375 C-8.39723159 20.38502568 -10.0161717 18.98921886 -13 17 C-18.81663203 15.56929615 -22.60814906 16.91222359 -26 22 Z " transform="translate(81,210)"/>
  <path d="M0 0 C3.02182284 2.05741129 4.69011377 3.49949825 5.4453125 7.15625 C5.65056702 11.26134032 5.33688603 13.46098235 3.125 17 C-0.38203137 20.30073541 -3.06457207 20.40757867 -7.73828125 20.33984375 C-10 20 -10 20 -13 17.9375 C-15.40813237 14.40055558 -16 12.27436594 -16 8 C-14.7187601 4.08091325 -13.62547612 2.44067635 -10.25 0.0625 C-6.2461812 -1.24644076 -4.04197581 -1.17584751 0 0 Z " transform="translate(171,25)"/>
  <path d="M0 0 C3.67080764 2.52368025 4.75864984 4.17035883 6 8.4375 C6 12.53094236 5.22004022 14.59065251 3 18 C-1.00254616 20.66836411 -4.29313299 20.8340238 -9 20 C-11.75569447 17.81840855 -13.43588747 16.12822506 -15 13 C-15.59873168 7.73116124 -14.25400021 5.1153532 -11 1 C-7.51390112 -0.74304944 -3.80359929 -0.57152528 0 0 Z " transform="translate(424,492)"/>
  <script xmlns=""/>
</svg>